<?xml version="1.0" encoding="UTF-8"?>
<svg width="56px" height="48px" viewBox="0 0 56 48" version="1.1" xmlns="http://www.w3.org/2000/svg" xmlns:xlink="http://www.w3.org/1999/xlink">
    <!-- Generator: Sketch 49.1 (51147) - http://www.bohemiancoding.com/sketch -->
    <title>icn_home</title>
    <desc>Created with Sketch.</desc>
    <defs>
        <linearGradient x1="50%" y1="0%" x2="50%" y2="100%" id="linearGradient-1">
            <stop stop-color="#B1BBC8" offset="0%"></stop>
            <stop stop-color="#798597" offset="100%"></stop>
        </linearGradient>
        <path d="M48.4920381,17.54961 L52.6101032,20.933264 C52.697651,20.9916292 52.7241003,21.0357114 52.7241003,21.0912395 C52.7241003,21.1989332 52.68605,21.3130841 52.6021776,21.4388927 L50.8028893,23.6858593 C50.7661015,23.7195657 50.6706145,23.762969 50.5308641,23.7829333 C50.4234774,23.7982742 50.3694947,23.7835517 50.3333205,23.7473774 L48.9408219,22.6305884 C48.7075729,22.4439891 48.3620502,22.6100559 48.3620502,22.9087605 L48.3620502,40.9022174 C48.3620502,41.2342277 48.2614013,41.4914416 48.0574465,41.6953963 C47.8534918,41.8993511 47.5962779,42 47.2642675,42 L31.997092,42 C31.9144986,42 31.8366227,41.9646018 31.7491693,41.8771484 C31.6617159,41.789695 31.6263177,41.7118191 31.6263177,41.6292257 L31.6263177,29.997092 C31.6263177,29.8003493 31.4668263,29.6408579 31.2700836,29.6408579 L25.4540167,29.6408579 C25.2572741,29.6408579 25.0977826,29.8003493 25.0977826,29.997092 L25.0977826,41.6292257 C25.0977826,41.7118191 25.0623845,41.789695 24.9749311,41.8771484 C24.8874777,41.9646018 24.8096017,42 24.7270084,42 L9.45983279,42 C9.12782242,42 8.87060857,41.8993511 8.66665382,41.6953963 C8.46269906,41.4914416 8.36205016,41.2342277 8.36205016,40.9022174 L8.36205016,22.9087605 C8.36205016,22.6100559 8.01652742,22.4439891 7.78327839,22.6305884 L6.42013771,23.7211009 C6.35460559,23.7835517 6.30062293,23.7982742 6.19323625,23.7829333 C6.05348584,23.762969 5.95799878,23.7195657 5.89493444,23.6565014 L4.10369009,21.4139581 C4.03805029,21.3130841 4,21.1989332 4,21.0912395 C4,21.0357114 4.02644932,20.9916292 4.11399716,20.933264 L26.3159758,2.73715895 C26.9187722,2.24396209 27.5964446,2 28.3620502,2 C29.1276557,2 29.8053282,2.24396209 30.4083704,2.73736029 L44.1312514,13.9156022 C44.3639802,14.105176 44.7124682,13.9395721 44.7124682,13.6394039 L44.7124682,8.18684115 C44.7124682,8.1042478 44.7478664,8.02637185 44.8353198,7.93891845 C44.9227732,7.85146505 45.0006491,7.81606688 45.0832425,7.81606688 L47.9912759,7.81606688 C48.0738692,7.81606688 48.1517452,7.85146505 48.2391986,7.93891845 C48.326652,8.02637185 48.3620502,8.1042478 48.3620502,8.18684115 L48.3620502,17.2744457 C48.3620502,17.3809908 48.4097399,17.4819426 48.4920381,17.54961 Z M44.7124682,37.9941839 L44.7124682,19.2737186 C44.7124682,19.166912 44.664545,19.0657408 44.5819028,18.9980805 L29.042099,6.27543419 C28.6059431,5.92648024 28.1181573,5.92648024 27.6851323,6.27290024 L12.1421976,18.9980805 C12.0595553,19.0657408 12.0116321,19.166912 12.0116321,19.2737186 L12.0116321,37.9941839 C12.0116321,38.1909266 12.1711236,38.350418 12.3678662,38.350418 L21.0919666,38.350418 C21.2887092,38.350418 21.4482007,38.1909266 21.4482007,37.9941839 L21.4482007,26.3620502 C21.4482007,26.2794568 21.4835988,26.2015809 21.5710522,26.1141275 C21.6585056,26.0266741 21.7363816,25.9912759 21.8189749,25.9912759 L34.9051254,25.9912759 C34.9877188,25.9912759 35.0655947,26.0266741 35.1530481,26.1141275 C35.2405015,26.2015809 35.2758997,26.2794568 35.2758997,26.3620502 L35.2758997,37.9941839 C35.2758997,38.1909266 35.4353911,38.350418 35.6321338,38.350418 L44.3562341,38.350418 C44.5529768,38.350418 44.7124682,38.1909266 44.7124682,37.9941839 Z" id="path-2"></path>
        <filter x="-14.4%" y="-12.5%" width="128.7%" height="135.0%" filterUnits="objectBoundingBox" id="filter-3">
            <feOffset dx="0" dy="2" in="SourceAlpha" result="shadowOffsetOuter1"></feOffset>
            <feGaussianBlur stdDeviation="2" in="shadowOffsetOuter1" result="shadowBlurOuter1"></feGaussianBlur>
            <feColorMatrix values="0 0 0 0 0.474509804   0 0 0 0 0.521568627   0 0 0 0 0.592156863  0 0 0 0.5 0" type="matrix" in="shadowBlurOuter1"></feColorMatrix>
        </filter>
    </defs>
    <g id="DSD-Real-Estate" stroke="none" stroke-width="1" fill="none" fill-rule="evenodd">
        <g id="icn_home" fill-rule="nonzero">
            <use fill="black" fill-opacity="1" filter="url(#filter-3)" xlink:href="#path-2"></use>
            <use fill="url(#linearGradient-1)" fill-rule="evenodd" xlink:href="#path-2"></use>
        </g>
    </g>
</svg>