<?xml version="1.0" encoding="UTF-8"?>
<svg width="14px" height="15px" viewBox="0 0 14 15" version="1.1" xmlns="http://www.w3.org/2000/svg" xmlns:xlink="http://www.w3.org/1999/xlink">
    <!-- Generator: Sketch 49.1 (51147) - http://www.bohemiancoding.com/sketch -->
    <title>icn_arrow_circle_down</title>
    <desc>Created with Sketch.</desc>
    <defs></defs>
    <g id="Page-1" stroke="none" stroke-width="1" fill="none" fill-rule="evenodd">
        <path d="M11.4642857,7.27678571 C11.4642857,7.11607063 11.4107148,6.98214339 11.3035714,6.875 L7.25892857,2.83035714 C7.15178518,2.72321375 7.01785795,2.66964286 6.85714286,2.66964286 C6.69642777,2.66964286 6.56250054,2.72321375 6.45535714,2.83035714 L2.41071429,6.875 C2.30357089,6.98214339 2.25,7.11607063 2.25,7.27678571 C2.25,7.4375008 2.30357089,7.57142804 2.41071429,7.67857143 L3.22321429,8.49107143 C3.33035768,8.59821482 3.46428491,8.65178571 3.625,8.65178571 C3.78571509,8.65178571 3.91964232,8.59821482 4.02678571,8.49107143 L5.71428571,6.80357143 L5.71428571,11.2857143 C5.71428571,11.440477 5.77083277,11.5744042 5.88392857,11.6875 C5.99702438,11.8005958 6.13095161,11.8571429 6.28571429,11.8571429 L7.42857143,11.8571429 C7.58333411,11.8571429 7.71726134,11.8005958 7.83035714,11.6875 C7.94345295,11.5744042 8,11.440477 8,11.2857143 L8,6.80357143 L9.6875,8.49107143 C9.8005958,8.60416723 9.93452304,8.66071429 10.0892857,8.66071429 C10.2440484,8.66071429 10.3779756,8.60416723 10.4910714,8.49107143 L11.3035714,7.67857143 C11.4107148,7.57142804 11.4642857,7.4375008 11.4642857,7.27678571 Z M13.7142857,7.28571429 C13.7142857,8.52976813 13.4077412,9.67707808 12.7946429,10.7276786 C12.1815446,11.7782791 11.3497076,12.610116 10.2991071,13.2232143 C9.24850665,13.8363126 8.1011967,14.1428571 6.85714286,14.1428571 C5.61308902,14.1428571 4.46577906,13.8363126 3.41517857,13.2232143 C2.36457808,12.610116 1.53274116,11.7782791 0.919642857,10.7276786 C0.306544554,9.67707808 0,8.52976813 0,7.28571429 C0,6.04166045 0.306544554,4.89435049 0.919642857,3.84375 C1.53274116,2.79314951 2.36457808,1.96131259 3.41517857,1.34821429 C4.46577906,0.735115982 5.61308902,0.428571429 6.85714286,0.428571429 C8.1011967,0.428571429 9.24850665,0.735115982 10.2991071,1.34821429 C11.3497076,1.96131259 12.1815446,2.79314951 12.7946429,3.84375 C13.4077412,4.89435049 13.7142857,6.04166045 13.7142857,7.28571429 Z" id="icn_arrow_circle_down" fill="#FE767B" transform="translate(6.857143, 7.285714) scale(1, -1) translate(-6.857143, -7.285714) "></path>
    </g>
</svg>