<?xml version="1.0" encoding="UTF-8"?>
<svg width="52px" height="48px" viewBox="0 0 52 48" version="1.1" xmlns="http://www.w3.org/2000/svg" xmlns:xlink="http://www.w3.org/1999/xlink">
    <!-- Generator: Sketch 49.1 (51147) - http://www.bohemiancoding.com/sketch -->
    <title>icn_forsale</title>
    <desc>Created with Sketch.</desc>
    <defs>
        <linearGradient x1="50%" y1="0%" x2="50%" y2="100%" id="linearGradient-1">
            <stop stop-color="#B1BBC8" offset="0%"></stop>
            <stop stop-color="#798597" offset="100%"></stop>
        </linearGradient>
        <path d="M13.148319,6.11862169 L46.7743567,6.11862169 C47.5901941,6.11862169 48.2512077,6.77840787 48.2512077,7.59278792 C48.2512077,8.40716288 47.5901992,9.06686566 46.7743567,9.06686566 L42.0565908,9.06686566 L42.0565908,10.2373319 L42.6445529,10.2373319 C44.5973797,10.2373319 46.1863058,11.8219584 46.1863058,13.7707647 L46.1863058,28.1860733 C46.1863058,30.1348482 44.5974111,31.7195062 42.6445529,31.7195062 L19.9308982,31.7195062 C17.9780714,31.7195062 16.3891452,30.1348796 16.3891452,28.1860733 L16.3891452,13.7707647 C16.3891452,11.8219898 17.97804,10.2373319 19.9308982,10.2373319 L20.5188603,10.2373319 L20.5188603,9.06686566 L13.1482303,9.06686566 L13.1482303,39.0518445 L29.5873312,39.0518445 C30.4031736,39.0518445 31.0641822,39.7115473 31.0641822,40.5259223 C31.0641822,41.3402972 30.4031736,42 29.5873312,42 L5.47685103,42 C4.66177632,42 4,41.3400014 4,40.5259223 C4,39.7118431 4.66177632,39.0518445 5.47685103,39.0518445 L6.06481318,39.0518445 L6.06481318,5.53343283 C6.06481318,3.58468649 7.65376798,2 9.60656611,2 C11.5594243,2 13.148319,3.58465792 13.148319,5.53343283 L13.148319,6.11862169 Z M10.1945283,5.53343283 C10.1945283,5.21187137 9.93019079,4.94824398 9.60656611,4.94824398 C9.28290493,4.94824398 9.01860397,5.21181933 9.01860265,5.53235187 L9.10012749,39.0518445 L10.1945283,39.0518445 L10.1945283,5.53343283 Z M39.1028887,9.06686566 L23.4727398,9.06686566 L23.4727398,10.2374203 L39.1028887,10.2374203 L39.1028887,9.06686566 Z M19.9309869,13.1855758 C19.6073257,13.1855758 19.3430247,13.4491512 19.3430247,13.7707647 L19.3430247,28.1860733 C19.3430247,28.5076712 19.60731,28.7712622 19.9309869,28.7712622 L42.6446416,28.7712622 C42.9689295,28.7712622 43.2326038,28.5081245 43.2326038,28.1860733 L43.2326038,13.7707647 C43.2326038,13.4487619 42.9688741,13.1855377 42.6446416,13.1854873 L40.902644,13.1854873 L19.9309869,13.1855758 Z M22.6195251,20.2366263 C22.4244859,19.6779215 22.6022468,19.0570717 23.0641032,18.6883998 L27.8068051,14.8947785 C28.3153193,14.4879719 29.038315,14.4879719 29.5468071,14.8947608 L34.2895311,18.6883998 C34.7507998,19.0576543 34.9280603,19.6784651 34.7330397,20.2366543 C34.588736,20.6499347 34.2628891,20.9619865 33.863415,21.0964505 L33.863415,25.466768 C33.863415,26.236013 33.2401896,26.8596018 32.4704584,26.8596018 L24.8821162,26.8596018 C24.1130963,26.8596018 23.4891595,26.2357459 23.4891595,25.466768 L23.4891595,21.09645 C23.0896849,20.9619847 22.763836,20.6499274 22.6195251,20.2366263 Z M31.0775017,19.7761872 C31.0775017,19.7469539 31.078423,19.7178662 31.0802518,19.6889254 L28.6763281,17.7665379 L26.2724063,19.6889238 C26.2742339,19.7178603 26.2751544,19.7469477 26.2751544,19.7761872 L26.2751544,24.0738527 L31.0775017,24.0738527 L31.0775017,19.7761872 Z M38.4541063,19.0434783 C37.739071,19.0434783 37.1594203,18.4638276 37.1594203,17.7487923 C37.1594203,17.0337569 37.739071,16.4541063 38.4541063,16.4541063 C39.1691416,16.4541063 39.7487923,17.0337569 39.7487923,17.7487923 C39.7487923,18.4638276 39.1691416,19.0434783 38.4541063,19.0434783 Z M38.4541063,22.4444444 C37.739071,22.4444444 37.1594203,21.8647938 37.1594203,21.1497585 C37.1594203,20.4347231 37.739071,19.8550725 38.4541063,19.8550725 C39.1691416,19.8550725 39.7487923,20.4347231 39.7487923,21.1497585 C39.7487923,21.8647938 39.1691416,22.4444444 38.4541063,22.4444444 Z M38.4541063,25.8454106 C37.739071,25.8454106 37.1594203,25.26576 37.1594203,24.5507246 C37.1594203,23.8356893 37.739071,23.2560386 38.4541063,23.2560386 C39.1691416,23.2560386 39.7487923,23.8356893 39.7487923,24.5507246 C39.7487923,25.26576 39.1691416,25.8454106 38.4541063,25.8454106 Z" id="path-2"></path>
        <filter x="-15.8%" y="-12.5%" width="131.6%" height="135.0%" filterUnits="objectBoundingBox" id="filter-3">
            <feOffset dx="0" dy="2" in="SourceAlpha" result="shadowOffsetOuter1"></feOffset>
            <feGaussianBlur stdDeviation="2" in="shadowOffsetOuter1" result="shadowBlurOuter1"></feGaussianBlur>
            <feColorMatrix values="0 0 0 0 0.474509804   0 0 0 0 0.521568627   0 0 0 0 0.592156863  0 0 0 0.5 0" type="matrix" in="shadowBlurOuter1"></feColorMatrix>
        </filter>
    </defs>
    <g id="DSD-Real-Estate" stroke="none" stroke-width="1" fill="none" fill-rule="evenodd">
        <g id="icn_forsale">
            <use fill="black" fill-opacity="1" filter="url(#filter-3)" xlink:href="#path-2"></use>
            <use fill="url(#linearGradient-1)" fill-rule="evenodd" xlink:href="#path-2"></use>
        </g>
    </g>
</svg>