<?xml version="1.0" encoding="UTF-8"?>
<svg width="48px" height="48px" viewBox="0 0 48 48" version="1.1" xmlns="http://www.w3.org/2000/svg" xmlns:xlink="http://www.w3.org/1999/xlink">
    <!-- Generator: Sketch 49.1 (51147) - http://www.bohemiancoding.com/sketch -->
    <title>icn_money</title>
    <desc>Created with Sketch.</desc>
    <defs>
        <linearGradient x1="50%" y1="0%" x2="50%" y2="100%" id="linearGradient-1">
            <stop stop-color="#B1BBC8" offset="0%"></stop>
            <stop stop-color="#798597" offset="100%"></stop>
        </linearGradient>
        <path d="M43.999983,27.1043125 L43.999983,37.3989827 C43.999983,40.2093845 39.3975785,42 33.897347,42 C30.4973289,42 27.4124905,41.2901258 25.5476078,40.0946121 C23.6954084,41.3006361 20.512985,42 17.2117717,42 C11.7115401,42 7.10913568,40.2093845 7.10913568,37.3989827 L7.10913568,25.976344 L4.5934238,24.5709789 C4.39716845,24.4477842 4.24158462,24.2723527 4.1460476,24.0654195 C3.86973892,23.4671529 4.1561384,22.7708515 4.77831939,22.5118842 L6.39193502,21.8578843 L4.60925213,20.8609082 C4.3764924,20.7315132 4.19416683,20.5313691 4.09162986,20.2908726 C3.83351037,19.6851327 4.14045855,18.9975035 4.76467886,18.7577776 L6.38222696,18.1247719 L4.60312204,17.1297506 C4.37981473,16.9995359 4.20538894,16.8034923 4.10644732,16.56984 C3.8495753,15.9636594 4.15809398,15.2767463 4.78133442,15.0387407 L6.38433705,14.4066017 L4.60656008,13.4123641 C4.37373298,13.2801778 4.19264056,13.0767674 4.09285689,12.8337006 C3.84280662,12.2249273 4.15892254,11.541348 4.78273739,11.3105241 L15.0379977,7.3182508 L20.0373637,5.32342866 C20.1448096,5.28284509 20.257632,5.25724333 20.372369,5.247245 L28.4979795,2.0873652 C28.8381641,1.95326505 29.2233345,1.97430487 29.5466313,2.14521805 L40.5929617,8.02384834 C40.8258705,8.14910214 41.010215,8.34483981 41.1166613,8.58156415 C41.3869341,9.18243004 41.0935177,9.87592222 40.4708638,10.1281353 L38.8158764,10.7930865 L40.5929617,11.7432131 C40.8258705,11.8684669 41.010215,12.0642045 41.1166613,12.3009289 C41.3869341,12.9017948 41.0935177,13.5952869 40.4708638,13.8475 L38.8158764,14.5124512 L40.5929617,15.4625778 C40.8258705,15.5878316 41.010215,15.7835692 41.1166613,16.0202936 C41.3869341,16.6211595 41.0935177,17.3146516 40.4708638,17.5668647 L38.8091773,18.2345076 L40.5492364,19.1819425 C40.7821452,19.3071963 40.9664897,19.5029339 41.072936,19.7396583 C41.3432088,20.3405242 41.0497924,21.0340164 40.4276495,21.2860236 L36.9205344,22.7016652 C41.0736825,23.245502 44.0081603,24.8353197 43.999983,27.1043125 Z M37.1987918,20.0621655 L35.9323399,19.3868251 L31.8706934,21.0252178 L31.8706934,22.2056069 L37.1987918,20.0621655 Z M37.1987917,16.3428008 L35.9323398,15.6674604 L31.8706934,17.3058531 L31.8706934,18.4862422 L37.1987917,16.3428008 Z M37.2015714,12.6223179 L35.9317294,11.9400398 L31.8706934,13.5781862 L31.8706934,14.7668775 L37.2015714,12.6223179 Z M23.1703889,6.68799443 L30.7408881,11.4869622 L37.1976395,8.89558742 L28.8816229,4.46659029 L23.1703889,6.68799443 Z M8.00028206,12.5893141 L16.3875737,17.2695648 L22.9889266,14.6081268 L15.311918,9.74426385 L8.00028206,12.5893141 Z M7.99840673,16.3092375 L13.496062,19.3909918 C13.9874543,19.308365 14.4811625,19.2421228 14.9762844,19.1922748 L9.07018817,15.8919221 L7.99840673,16.3092375 Z M20.545661,19.3217383 L24.3545041,17.7830411 L24.3545042,16.6028761 L18.1648056,19.0975544 C18.9609874,19.130149 19.7558423,19.2048636 20.545661,19.3217383 Z M25.0320562,21.4214038 L25.0320562,19.3059947 L22.4202264,20.3686588 L23.2937703,20.6621516 C23.7201,20.8053895 24.135279,20.9769924 24.5361329,21.1756416 L25.0320562,21.4214038 Z M9.30293059,20.7721271 C9.61384222,20.5917855 9.93531001,20.4285785 10.265727,20.2832504 L9.06883091,19.603513 L7.99143266,20.0230155 L9.30293059,20.7721271 Z M9.55329923,37.3989827 C9.55329923,38.3689094 13.0176861,39.6555441 17.220626,39.6555441 C21.4235659,39.6555441 24.8879528,38.3689094 24.8879528,37.3989827 L24.8879528,37.0516772 C22.9836808,38.020408 20.1382607,38.5712107 17.220626,38.5712107 C14.3012752,38.5712107 11.4513008,38.0201797 9.55329923,37.0526056 L9.55329923,37.3989827 Z M9.55329923,33.9701934 C9.55329923,34.9401201 13.0176861,36.2267548 17.220626,36.2267548 C21.4235659,36.2267548 24.8879528,34.9401201 24.8879528,33.9701934 L24.8879528,33.6228878 C22.9836808,34.5916187 20.1382607,35.1424213 17.220626,35.1424213 C14.3012752,35.1424213 11.4513008,34.5913903 9.55329923,33.6238163 L9.55329923,33.9701934 Z M9.55329923,30.541404 C9.55329923,31.5113307 13.0176861,32.7979654 17.220626,32.7979654 C21.4235659,32.7979654 24.8879528,31.5113307 24.8879528,30.541404 L24.8879528,30.1940985 C22.9836808,31.1628293 20.1382607,31.713632 17.220626,31.713632 C14.3012752,31.713632 11.4513008,31.162601 9.55329923,30.1950269 L9.55329923,30.541404 Z M9.55329923,27.1126147 C9.55329923,28.0774055 13.0245447,29.3691761 17.220626,29.3691761 C21.4235659,29.3691761 24.8879528,28.0825414 24.8879528,27.1126147 L24.8879528,26.7321005 C22.9836808,27.7008314 20.1382607,28.251634 17.220626,28.251634 C14.3012752,28.251634 11.4513008,27.700603 9.55329923,26.733029 L9.55329923,27.1126147 Z M17.2293711,25.9320846 C21.4136481,25.9320846 24.8966979,24.6229335 24.8966979,23.6589189 C24.8966979,22.7066564 21.4184615,21.4272639 17.220626,21.4272639 C13.0245447,21.4272639 9.55329923,22.7190345 9.55329923,23.6838253 C9.55329923,24.6381122 12.949371,25.9122977 17.0838352,25.9399295 L17.2293711,25.9320846 Z M26.7898133,14.842032 L26.7898133,22.0718817 C27.1136323,22.505012 27.3008984,23.0184751 27.3286303,23.5543522 C28.0068224,23.2990678 28.7054786,23.0958559 29.4178941,22.9467269 L29.4178941,13.4525374 L20.4278455,7.76003855 L18.0629688,8.68046898 L26.2367894,13.8640453 C26.578269,14.0775544 26.7876259,14.4441507 26.7898133,14.842032 Z M33.9062013,39.6555441 C38.1091412,39.6555441 41.5735281,38.3689094 41.5735281,37.3989827 L41.5735281,37.0516797 C39.6693084,38.0204084 36.8244866,38.5712036 33.9136462,38.5711302 C31.6640794,38.6197859 29.4267485,38.2634869 27.3192551,37.5224448 C27.3042512,37.7870793 27.2483338,38.0476841 27.1536936,38.2958908 C28.5491125,39.1024034 31.0300984,39.6555441 33.9062013,39.6555441 Z M33.9062013,36.2267548 C38.1091412,36.2267548 41.5735281,34.9401201 41.5735281,33.9701934 L41.5735281,33.6394947 C39.6693084,34.6082233 36.8244866,35.1590186 33.9136462,35.1589451 C31.665505,35.2075701 29.4295843,34.8517533 27.323262,34.1116682 L27.323262,34.9388357 C29.3704442,35.8645572 31.6252896,36.3070468 33.9062013,36.2267548 Z M33.9062013,32.7979654 C38.1091412,32.7979654 41.5735281,31.5113307 41.5735281,30.541404 L41.5735281,30.1857989 C39.6693084,31.1545275 36.8244866,31.7053228 33.9136462,31.7052493 C31.665505,31.7538743 29.4295843,31.3980574 27.323262,30.6579724 L27.323262,31.5100792 C29.3704398,32.436128 31.6253773,32.8786473 33.9062013,32.7979654 Z M33.8939985,29.3693924 C38.1008236,29.3691761 41.5735281,28.0602954 41.5735281,27.0877082 C41.5735281,26.1229174 38.1022827,24.8311468 33.8948536,24.8309598 C31.6241132,24.7560751 29.36935,25.2040676 27.323262,26.1351076 L27.323262,28.08129 C29.3704282,29.0073389 31.6249976,29.4498647 33.8939985,29.3693924 Z" id="path-2"></path>
        <filter x="-17.5%" y="-12.5%" width="135.0%" height="135.0%" filterUnits="objectBoundingBox" id="filter-3">
            <feOffset dx="0" dy="2" in="SourceAlpha" result="shadowOffsetOuter1"></feOffset>
            <feGaussianBlur stdDeviation="2" in="shadowOffsetOuter1" result="shadowBlurOuter1"></feGaussianBlur>
            <feColorMatrix values="0 0 0 0 0.474509804   0 0 0 0 0.521568627   0 0 0 0 0.592156863  0 0 0 0.5 0" type="matrix" in="shadowBlurOuter1"></feColorMatrix>
        </filter>
    </defs>
    <g id="DSD-Real-Estate" stroke="none" stroke-width="1" fill="none" fill-rule="evenodd">
        <g id="icn_money" fill-rule="nonzero">
            <use fill="black" fill-opacity="1" filter="url(#filter-3)" xlink:href="#path-2"></use>
            <use fill="url(#linearGradient-1)" fill-rule="evenodd" xlink:href="#path-2"></use>
        </g>
    </g>
</svg>