<?xml version="1.0" encoding="UTF-8"?>
<svg width="49px" height="48px" viewBox="0 0 49 48" version="1.1" xmlns="http://www.w3.org/2000/svg" xmlns:xlink="http://www.w3.org/1999/xlink">
    <!-- Generator: Sketch 49.1 (51147) - http://www.bohemiancoding.com/sketch -->
    <title>icn_bank</title>
    <desc>Created with Sketch.</desc>
    <defs>
        <linearGradient x1="50%" y1="0%" x2="50%" y2="100%" id="linearGradient-1">
            <stop stop-color="#B1BBC8" offset="0%"></stop>
            <stop stop-color="#798597" offset="100%"></stop>
        </linearGradient>
        <path d="M10.2487007,31.137628 L10.2487007,17.1539886 L13.7020546,17.1539885 L13.7020546,31.137628 C13.7020546,31.3343647 13.8615412,31.4938513 14.0582778,31.4938513 L18.2240783,31.4938513 C18.420815,31.4938513 18.5803016,31.3343647 18.5803016,31.137628 L18.5803016,17.1539886 L22.0336555,17.1539886 L22.0336555,31.137628 C22.0336555,31.3343647 22.1931421,31.4938513 22.3898788,31.4938513 L26.5556792,31.4938513 C26.7524159,31.4938513 26.9119025,31.3343647 26.9119025,31.137628 L26.9119025,17.1539886 L30.3652564,17.1539885 L30.3652564,31.137628 C30.3652564,31.3343647 30.524743,31.4938513 30.7214797,31.4938513 L34.8872801,31.4938513 C35.0840168,31.4938513 35.2435034,31.3343647 35.2435034,31.137628 L35.2435034,17.1539886 L38.6968573,17.1539886 L38.6968573,31.137628 C38.6968573,31.3343647 38.8563439,31.4938513 39.0530806,31.4938513 L40.4416807,31.4938513 C40.9253212,31.4938513 41.3259346,31.6604401 41.6639449,32.0017911 C42.0026269,32.3438205 42.1683577,32.7502875 42.1683577,33.2411146 L42.1683577,38.14925 C42.1683577,38.3459867 42.3278442,38.5054733 42.5245809,38.5054733 L43.218881,38.5054733 C43.7025215,38.5054733 44.1031349,38.6720621 44.4411452,39.0134132 C44.7798272,39.3554426 44.945558,39.7619095 44.945558,40.2527367 L44.945558,41.6550611 C44.945558,41.7319861 44.9129772,41.8043722 44.831689,41.8864639 C44.7510628,41.9678869 44.6811054,42 44.6074812,42 L4.3380768,42 C4.26445254,42 4.19449513,41.9678869 4.11386898,41.8864639 C4.03258077,41.8043722 4,41.7319861 4,41.6550611 L4,40.2527367 C4,39.7619095 4.16573074,39.3554426 4.50441277,39.0134132 C4.8424231,38.6720621 5.24303645,38.5054733 5.72667695,38.5054733 L6.42097702,38.5054733 C6.61771371,38.5054733 6.7772003,38.3459867 6.7772003,38.14925 L6.7772003,33.2411146 C6.7772003,32.7502875 6.94293104,32.3438205 7.28161307,32.0017911 C7.6196234,31.6604401 8.02023675,31.4938513 8.50387725,31.4938513 L9.8924774,31.4938513 C10.0892141,31.4938513 10.2487007,31.3343647 10.2487007,31.137628 Z M38.7150038,38.14925 L38.7150038,35.3446012 C38.7150038,35.1478645 38.5555172,34.9883779 38.3587805,34.9883779 L10.5867775,34.9883779 C10.3900408,34.9883779 10.2305542,35.1478645 10.2305542,35.3446012 L10.2305542,38.14925 C10.2305542,38.3459867 10.3900408,38.5054733 10.5867775,38.5054733 L38.3587805,38.5054733 C38.5555172,38.5054733 38.7150038,38.3459867 38.7150038,38.14925 Z M44.481321,10.1729605 C44.8082583,10.2967738 44.945558,10.4874267 44.945558,10.803924 L44.945558,13.2579917 C44.945558,13.4566665 44.8810783,13.6148076 44.7449015,13.7523304 C44.6093963,13.8891748 44.4546785,13.9535118 44.2603311,13.9535118 L42.5245809,13.9535118 C42.3278442,13.9535118 42.1683577,14.1129984 42.1683577,14.309735 L42.1683577,15.3614783 C42.1683577,15.5601531 42.103878,15.7182942 41.9677012,15.855817 C41.832196,15.9926614 41.6774782,16.0569984 41.4831308,16.0569984 L7.46242714,16.0569984 C7.26807978,16.0569984 7.11336192,15.9926614 6.97785679,15.855817 C6.84167996,15.7182942 6.7772003,15.5601531 6.7772003,15.3614783 L6.7772003,14.309735 C6.7772003,14.1129984 6.61771371,13.9535118 6.42097702,13.9535118 L4.68522684,13.9535118 C4.49087948,13.9535118 4.33616162,13.8891748 4.20065649,13.7523304 C4.06447966,13.6148076 4,13.4566665 4,13.2579917 L4,10.803924 C4,10.4874267 4.13729969,10.2967738 4.46423696,10.1729605 L23.3098827,2.19212609 C24.0787613,1.9343819 24.8667967,1.9343819 25.6609434,2.2017138 L44.481321,10.1729605 Z M7.40996275,13.0940296 L40.7363664,13.0940296 C41.1322955,13.0940296 41.2327934,12.5448941 40.8625265,12.4046717 L24.1993247,6.09421188 C24.1180349,6.06342693 24.0282942,6.06342693 23.9470044,6.09421188 L7.28380258,12.4046717 C6.91353574,12.5448941 7.01403365,13.0940296 7.40996275,13.0940296 Z" id="path-2"></path>
        <filter x="-17.1%" y="-12.5%" width="134.2%" height="135.0%" filterUnits="objectBoundingBox" id="filter-3">
            <feOffset dx="0" dy="2" in="SourceAlpha" result="shadowOffsetOuter1"></feOffset>
            <feGaussianBlur stdDeviation="2" in="shadowOffsetOuter1" result="shadowBlurOuter1"></feGaussianBlur>
            <feColorMatrix values="0 0 0 0 0.474509804   0 0 0 0 0.521568627   0 0 0 0 0.592156863  0 0 0 0.5 0" type="matrix" in="shadowBlurOuter1"></feColorMatrix>
        </filter>
    </defs>
    <g id="DSD-Real-Estate" stroke="none" stroke-width="1" fill="none" fill-rule="evenodd">
        <g id="icn_bank" fill-rule="nonzero">
            <use fill="black" fill-opacity="1" filter="url(#filter-3)" xlink:href="#path-2"></use>
            <use fill="url(#linearGradient-1)" fill-rule="evenodd" xlink:href="#path-2"></use>
        </g>
    </g>
</svg>