<?xml version="1.0" encoding="UTF-8"?>
<svg width="54px" height="45px" viewBox="0 0 54 45" version="1.1" xmlns="http://www.w3.org/2000/svg" xmlns:xlink="http://www.w3.org/1999/xlink">
    <!-- Generator: Sketch 49.1 (51147) - http://www.bohemiancoding.com/sketch -->
    <title>icn_exchange</title>
    <desc>Created with Sketch.</desc>
    <defs>
        <linearGradient x1="50%" y1="0%" x2="50%" y2="100%" id="linearGradient-1">
            <stop stop-color="#B1BBC8" offset="0%"></stop>
            <stop stop-color="#798597" offset="100%"></stop>
        </linearGradient>
        <path d="M49.8063588,12.3640511 L40.6717434,21.4986665 C40.5226366,21.6916128 40.3827852,21.7615385 40.1884615,21.7615385 C39.9802006,21.7615385 39.7939095,21.6787424 39.6138335,21.4986665 L37.8782566,19.7630895 C37.6981807,19.5830136 37.6153846,19.3967225 37.6153846,19.1884615 C37.6153846,18.9941379 37.6853103,18.8542865 37.8407692,18.7376923 L42.5293007,14.3279469 C42.7601073,14.1107172 42.6063781,13.7230769 42.2894231,13.7230769 L4.74615385,13.7230769 C4.53422888,13.7230769 4.36451609,13.6531952 4.21719891,13.505878 C4.06988174,13.3585608 4,13.188848 4,12.9769231 L4,10.7846154 C4,10.5726904 4.06988174,10.4029776 4.21719891,10.2556605 C4.36451609,10.1083433 4.53422888,10.0384615 4.74615385,10.0384615 L42.2894231,10.0384615 C42.6063781,10.0384615 42.7601073,9.6508213 42.5293007,9.43359154 L37.8706469,5.04897616 C37.6853103,4.90725197 37.6153846,4.76740057 37.6153846,4.57307692 C37.6153846,4.36481597 37.6981807,4.17852484 37.8782566,3.99844891 L39.6138335,2.26287199 C39.7939095,2.08279606 39.9802006,2 40.1884615,2 C40.3827852,2 40.5226366,2.0699257 40.6392308,2.22538462 L49.8063588,11.3974874 C49.9993051,11.5465942 50.0692308,11.6864456 50.0692308,11.8807692 C50.0692308,12.0750929 49.9993051,12.2149443 49.8063588,12.3640511 Z M4.22538462,29.87 C4.0699257,29.7534058 4,29.6135544 4,29.4192308 C4,29.2249071 4.0699257,29.0850557 4.22538462,28.9684615 L13.3974874,19.8013335 C13.5465942,19.6083872 13.6864456,19.5384615 13.8807692,19.5384615 C14.0890302,19.5384615 14.2753213,19.6212576 14.4553972,19.8013335 L16.1909742,21.5369105 C16.3710501,21.7169864 16.4538462,21.9032775 16.4538462,22.1115385 C16.4538462,22.3058621 16.3839205,22.4457135 16.2284615,22.5623077 L11.53993,26.9720531 C11.3091234,27.1892828 11.4628527,27.5769231 11.7798077,27.5769231 L49.3230769,27.5769231 C49.5350019,27.5769231 49.7047147,27.6468048 49.8520319,27.794122 C49.999349,27.9414392 50.0692308,28.111152 50.0692308,28.3230769 L50.0692308,30.5153846 C50.0692308,30.7273096 49.999349,30.8970224 49.8520319,31.0443395 C49.7047147,31.1916567 49.5350019,31.2615385 49.3230769,31.2615385 L11.7798077,31.2615385 C11.4628527,31.2615385 11.3091234,31.6491787 11.53993,31.8664085 L16.1985839,36.2510238 C16.3839205,36.392748 16.4538462,36.5325994 16.4538462,36.7269231 C16.4538462,36.935184 16.3710501,37.1214752 16.1909742,37.3015511 L14.4553972,39.037128 C14.2753213,39.2172039 14.0890302,39.3 13.8807692,39.3 C13.6864456,39.3 13.5465942,39.2300743 13.43,39.0746154 L4.22538462,29.87 Z" id="path-2"></path>
        <filter x="-15.2%" y="-13.4%" width="130.4%" height="137.5%" filterUnits="objectBoundingBox" id="filter-3">
            <feOffset dx="0" dy="2" in="SourceAlpha" result="shadowOffsetOuter1"></feOffset>
            <feGaussianBlur stdDeviation="2" in="shadowOffsetOuter1" result="shadowBlurOuter1"></feGaussianBlur>
            <feColorMatrix values="0 0 0 0 0.474509804   0 0 0 0 0.521568627   0 0 0 0 0.592156863  0 0 0 0.5 0" type="matrix" in="shadowBlurOuter1"></feColorMatrix>
        </filter>
    </defs>
    <g id="DSD-Real-Estate" stroke="none" stroke-width="1" fill="none" fill-rule="evenodd">
        <g id="icn_exchange" fill-rule="nonzero">
            <use fill="black" fill-opacity="1" filter="url(#filter-3)" xlink:href="#path-2"></use>
            <use fill="url(#linearGradient-1)" fill-rule="evenodd" xlink:href="#path-2"></use>
        </g>
    </g>
</svg>