<?xml version="1.0" encoding="UTF-8"?>
<svg width="18px" height="21px" viewBox="0 0 18 21" version="1.1" xmlns="http://www.w3.org/2000/svg" xmlns:xlink="http://www.w3.org/1999/xlink">
    <!-- Generator: Sketch 49.1 (51147) - http://www.bohemiancoding.com/sketch -->
    <title>icn_policy</title>
    <desc>Created with Sketch.</desc>
    <defs>
        <linearGradient x1="50%" y1="0%" x2="50%" y2="100%" id="linearGradient-1">
            <stop stop-color="#5ECAF9" offset="0%"></stop>
            <stop stop-color="#3099F0" offset="100%"></stop>
        </linearGradient>
    </defs>
    <g id="Page-1" stroke="none" stroke-width="1" fill="none" fill-rule="evenodd" opacity="0.789999962">
        <g id="3" transform="translate(-331.000000, -828.000000)" fill="url(#linearGradient-1)">
            <g id="Path-45-Copy-8" transform="translate(307.000000, 796.000000)">
                <path d="M38.016,40.6 L38.016,38.584 L27.984,38.584 L27.984,40.6 L38.016,40.6 Z M38.016,44.584 L38.016,42.616 L27.984,42.616 L27.984,44.584 L38.016,44.584 Z M35.016,48.616 L35.016,46.6 L27.984,46.6 L27.984,48.616 L35.016,48.616 Z M33,34.6 C32.7279986,34.6 32.496001,34.695999 32.304,34.888 C32.111999,35.080001 32.016,35.3119986 32.016,35.584 C32.016,35.8560014 32.111999,36.095999 32.304,36.304 C32.496001,36.512001 32.7279986,36.616 33,36.616 C33.2720014,36.616 33.503999,36.512001 33.696,36.304 C33.888001,36.095999 33.984,35.8560014 33.984,35.584 C33.984,35.3119986 33.888001,35.080001 33.696,34.888 C33.503999,34.695999 33.2720014,34.6 33,34.6 Z M39.984,34.6 C40.5280027,34.6 40.999998,34.799998 41.4,35.2 C41.800002,35.600002 42,36.0719973 42,36.616 L42,50.584 C42,51.1280027 41.800002,51.599998 41.4,52 C40.999998,52.400002 40.5280027,52.6 39.984,52.6 L26.016,52.6 C25.4719973,52.6 25.000002,52.400002 24.6,52 C24.199998,51.599998 24,51.1280027 24,50.584 L24,36.616 C24,36.0719973 24.199998,35.600002 24.6,35.2 C25.000002,34.799998 25.4719973,34.6 26.016,34.6 L30.192,34.6 C30.400001,34.007997 30.7559975,33.5240019 31.26,33.148 C31.7640025,32.7719981 32.3439967,32.584 33,32.584 C33.6560033,32.584 34.2359975,32.7719981 34.74,33.148 C35.2440025,33.5240019 35.599999,34.007997 35.808,34.6 L39.984,34.6 Z" id="icn_policy"></path>
            </g>
        </g>
    </g>
</svg>