<?xml version="1.0" encoding="UTF-8"?>
<svg width="62px" height="41px" viewBox="0 0 62 41" version="1.1" xmlns="http://www.w3.org/2000/svg" xmlns:xlink="http://www.w3.org/1999/xlink">
    <!-- Generator: Sketch 49.1 (51147) - http://www.bohemiancoding.com/sketch -->
    <title>icn_people</title>
    <desc>Created with Sketch.</desc>
    <defs>
        <linearGradient x1="50%" y1="0%" x2="50%" y2="100%" id="linearGradient-1">
            <stop stop-color="#B1BBC8" offset="0%"></stop>
            <stop stop-color="#798597" offset="100%"></stop>
        </linearGradient>
        <path d="M14.6333333,29.8947917 C14.6333333,30.7736166 14.763801,31.6312938 15.0244924,32.4666667 L9.13958333,32.4666667 C7.69713365,32.4666667 6.48771089,31.9719028 5.49123737,30.9754293 C4.49476386,29.9789558 4,28.769533 4,27.3270833 L4,24.49375 C4,23.0238166 4.39523312,21.6405007 5.18855283,20.3371898 C6.09142558,18.8700295 7.35823917,17.8284272 8.99808732,17.2064158 C9.19702396,17.1309571 9.28317032,16.896925 9.1806339,16.7104951 C8.56012974,15.5823057 8.25,14.3417868 8.25,12.9833333 C8.25,10.7147741 9.03969291,8.7969485 10.626654,7.20998737 C12.2136152,5.62302625 14.1314408,4.83333333 16.4,4.83333333 C17.998593,4.83333333 19.4683367,5.25800578 20.8166046,6.10984249 C20.2452129,7.27802861 19.8684173,8.50014294 19.6865969,9.77493754 C19.380735,9.45666542 19.019488,9.18391884 18.6040566,8.95731988 C17.9039059,8.57541952 17.1675755,8.38333333 16.4,8.38333333 C15.1268748,8.38333333 14.0343139,8.83321136 13.142096,9.72542929 C12.249878,10.6176472 11.8,11.7102081 11.8,12.9833333 C11.8,14.2564585 12.249878,15.3490194 13.142096,16.2412374 C14.0343139,17.1334553 15.1268748,17.5833333 16.4,17.5833333 C16.5972144,17.5833333 16.7909525,17.5719618 16.9811329,17.5492086 C16.8020176,17.7860718 16.6292889,18.0292619 16.4629491,18.2787716 C15.9058258,19.1144565 15.4758116,20.0260809 15.1731059,21.0126299 C14.1527995,20.8740308 13.2051355,20.5468961 12.327457,20.0306147 C12.2422901,19.9805165 12.1399151,19.9687514 12.0456038,19.9982237 L10.6289371,20.440932 C9.73964752,20.6949047 8.99802765,21.194692 8.42124825,21.9316879 C7.84144969,22.6725417 7.55,23.5306991 7.55,24.49375 L7.55,27.3270833 C7.55,27.7725893 7.70381255,28.1571206 8.00667929,28.4599874 C8.30954604,28.7628541 8.69407741,28.9166667 9.13958333,28.9166667 L14.6333333,28.9166667 L14.6333333,29.8947917 Z M52.8270833,32.4666667 L46.9421759,32.4666667 C47.2028657,31.6312938 47.3333333,30.7736166 47.3333333,29.8947917 L47.3333333,28.9166667 L52.8270833,28.9166667 C53.2725893,28.9166667 53.6571206,28.7628541 53.9599874,28.4599874 C54.2628541,28.1571206 54.4166667,27.7725893 54.4166667,27.3270833 L54.4166667,24.49375 C54.4166667,23.5306991 54.125217,22.6725417 53.5454184,21.9316879 C52.968639,21.194692 52.2270191,20.6949047 51.3294857,20.4384666 L49.9210629,19.9982237 C49.8267516,19.9687514 49.7243766,19.9805165 49.6392096,20.0306147 C48.7602788,20.5476328 47.8111625,20.874964 46.7891926,21.0132221 C46.4875445,20.0784571 46.0607416,19.1697246 45.5092994,18.287417 C45.34007,18.0334476 45.165606,17.7876489 44.9853678,17.5491887 C45.1756015,17.5719551 45.3693949,17.5833333 45.5666667,17.5833333 C46.8397919,17.5833333 47.9323528,17.1334553 48.8245707,16.2412374 C49.7167886,15.3490194 50.1666667,14.2564585 50.1666667,12.9833333 C50.1666667,11.7102081 49.7167886,10.6176472 48.8245707,9.72542929 C47.9323528,8.83321136 46.8397919,8.38333333 45.5666667,8.38333333 C44.7990911,8.38333333 44.0627607,8.57541952 43.3626101,8.95731988 C42.9471787,9.18391884 42.5859317,9.45666542 42.2800697,9.77493754 C42.0982493,8.50014294 41.7214538,7.27802861 41.150062,6.10984249 C42.49833,5.25800578 43.9680736,4.83333333 45.5666667,4.83333333 C47.8352259,4.83333333 49.7530515,5.62302625 51.3400126,7.20998737 C52.9269738,8.7969485 53.7166667,10.7147741 53.7166667,12.9833333 C53.7166667,14.3417868 53.4065369,15.5823057 52.7860328,16.7104951 C52.6834963,16.896925 52.7696427,17.1309571 52.9685794,17.2064158 C54.6084275,17.8284272 55.8752411,18.8700295 56.7790029,20.3386424 C57.5714335,21.6405007 57.9666667,23.0238166 57.9666667,24.49375 L57.9666667,27.3270833 C57.9666667,28.769533 57.4719028,29.9789558 56.4754293,30.9754293 C55.4789558,31.9719028 54.269533,32.4666667 52.8270833,32.4666667 Z M45.5083333,24.49375 L45.5083333,29.8947917 C45.5083333,31.3958493 44.9843608,32.6644145 43.9285543,33.720221 C42.8727478,34.7760275 41.6041827,35.3 40.103125,35.3 L21.8635417,35.3 C20.362484,35.3 19.0939189,34.7760275 18.0381124,33.720221 C16.9823059,32.6644145 16.4583333,31.3958493 16.4583333,29.8947917 L16.4583333,24.49375 C16.4583333,22.8476095 16.9121282,21.2876899 17.8230804,19.8073924 C18.8977467,18.1673689 20.3716114,17.0052833 22.2487767,16.3226777 C22.4453767,16.2511868 22.535771,16.0243348 22.4422162,15.8372252 C21.7579828,14.4687585 21.4166667,13.0466079 21.4166667,11.5666667 C21.4166667,9.85723325 21.8432139,8.26479024 22.6979566,6.78323619 C23.5526378,5.30178875 24.7184554,4.13597117 26.1999029,3.28128996 C27.6814569,2.42654724 29.2738999,2 30.9833333,2 C32.6927667,2 34.2852098,2.42654724 35.7667638,3.28128996 C37.2482112,4.13597117 38.4140288,5.30178875 39.26871,6.78323619 C40.1234528,8.26479024 40.55,9.85723325 40.55,11.5666667 C40.55,13.0466079 40.2086839,14.4687585 39.5244505,15.8372252 C39.4308957,16.0243348 39.52129,16.2511868 39.7178899,16.3226777 C41.5950552,17.0052833 43.06892,18.1673689 44.1489053,19.8157675 C45.0545385,21.2876899 45.5083333,22.8476095 45.5083333,24.49375 Z M24.9666667,11.5666667 C24.9666667,13.2524425 25.5489534,14.6845531 26.7072001,15.8427999 C27.8654469,17.0010466 29.2975575,17.5833333 30.9833333,17.5833333 C32.6691092,17.5833333 34.1012198,17.0010466 35.2594665,15.8427999 C36.4177133,14.6845531 37,13.2524425 37,11.5666667 C37,9.8808908 36.4177133,8.44878019 35.2594665,7.29053346 C34.1012198,6.13228673 32.6691092,5.55 30.9833333,5.55 C29.2975575,5.55 27.8654469,6.13228673 26.7072001,7.29053346 C25.5489534,8.44878019 24.9666667,9.8808908 24.9666667,11.5666667 Z M41.9583333,24.49375 C41.9583333,23.354627 41.6085559,22.3211937 40.9132169,21.4046106 C40.2172745,20.4872319 39.296148,19.8678537 38.160342,19.5523521 L37.018555,19.200894 C36.9127962,19.1683528 36.797878,19.1877393 36.7086477,19.2531749 C34.9977485,20.5078343 33.0928197,21.1333333 30.9833333,21.1333333 C28.8738469,21.1333333 26.9689181,20.5078343 25.2580189,19.2531749 C25.1687886,19.1877393 25.0538705,19.1683528 24.9481116,19.200894 L23.79707,19.5550607 C22.6705187,19.8678537 21.7493922,20.4872319 21.0534497,21.4046106 C20.3581108,22.3211937 20.0083333,23.354627 20.0083333,24.49375 L20.0083333,29.8947917 C20.0083333,30.4010787 20.1929615,30.8441862 20.5535543,31.204779 C20.9141471,31.5653718 21.3572547,31.75 21.8635417,31.75 L40.103125,31.75 C40.609412,31.75 41.0525196,31.5653718 41.4131124,31.204779 C41.7737052,30.8441862 41.9583333,30.4010787 41.9583333,29.8947917 L41.9583333,24.49375 Z" id="path-2"></path>
        <filter x="-13.0%" y="-15.0%" width="125.9%" height="142.0%" filterUnits="objectBoundingBox" id="filter-3">
            <feOffset dx="0" dy="2" in="SourceAlpha" result="shadowOffsetOuter1"></feOffset>
            <feGaussianBlur stdDeviation="2" in="shadowOffsetOuter1" result="shadowBlurOuter1"></feGaussianBlur>
            <feColorMatrix values="0 0 0 0 0.474509804   0 0 0 0 0.521568627   0 0 0 0 0.592156863  0 0 0 0.5 0" type="matrix" in="shadowBlurOuter1"></feColorMatrix>
        </filter>
    </defs>
    <g id="DSD-Real-Estate" stroke="none" stroke-width="1" fill="none" fill-rule="evenodd">
        <g id="icn_people" fill-rule="nonzero">
            <use fill="black" fill-opacity="1" filter="url(#filter-3)" xlink:href="#path-2"></use>
            <use fill="url(#linearGradient-1)" fill-rule="evenodd" xlink:href="#path-2"></use>
        </g>
    </g>
</svg>