<?xml version="1.0" encoding="UTF-8"?>
<svg width="62px" height="58px" viewBox="0 0 62 58" version="1.1" xmlns="http://www.w3.org/2000/svg" xmlns:xlink="http://www.w3.org/1999/xlink">
    <!-- Generator: Sketch 49.1 (51147) - http://www.bohemiancoding.com/sketch -->
    <title>icn_handcuffs</title>
    <desc>Created with Sketch.</desc>
    <defs>
        <linearGradient x1="50%" y1="0%" x2="50%" y2="100%" id="linearGradient-1">
            <stop stop-color="#B1BBC8" offset="0%"></stop>
            <stop stop-color="#798597" offset="100%"></stop>
        </linearGradient>
        <path d="M41.7956431,9.12623123 C40.6822274,9.12623123 39.5842211,9.27588741 38.5233944,9.56920649 L36.3749536,7.45551114 C35.2538333,6.35265609 33.6636234,6.18942684 32.7545609,7.0838385 L30.8778445,8.93003884 L30.4706612,8.52945735 C30.9368839,7.81669551 30.8540138,6.8545067 30.2205279,6.23137993 L28.4997865,4.53853753 C27.7698129,3.82048749 26.5823965,3.82048749 25.852423,4.53853753 L25.058214,5.31986975 C24.9241884,5.45172231 24.8153374,5.59899881 24.7304963,5.7556178 L23.0097549,5.7556178 C22.9288558,5.6160092 22.8299492,5.48389222 22.7090036,5.36490762 L21.9147946,4.5835754 C21.1848211,3.86552537 19.9974047,3.86552537 19.2674311,4.5835754 L17.5466897,6.27641781 C16.8168058,6.99446785 16.8168058,8.16272036 17.5466897,8.88085854 L18.3408987,9.66219075 C18.5718599,9.88940728 18.84887,10.0442635 19.1424541,10.1276409 L19.1424541,11.5922973 C18.2890265,11.7633707 17.6448796,12.5075092 17.6448796,13.3968089 L17.6448796,15.7908672 C17.6448796,16.680167 18.2890265,17.4242174 19.1424541,17.5953789 L19.1424541,17.984767 L16.4657949,17.984767 C15.1801887,17.984767 14.1730259,19.2065186 14.1730259,20.7660101 L14.1730259,23.7536693 C13.2118224,24.2842525 12.328472,24.9433391 11.5407134,25.7182373 C7.64241472,29.5534195 6.87579918,35.4894291 9.67636033,40.1535374 C9.85096985,40.4443886 10.1628302,40.6062077 10.4832015,40.6062077 C10.6449997,40.6062077 10.8089481,40.5648715 10.9582935,40.4780568 C11.403373,40.2193755 11.5510162,39.6547715 11.2881612,39.2169082 C8.92210811,35.2765789 9.57028661,30.2611576 12.8643951,27.0204577 C13.6416718,26.2556952 14.5284266,25.6247242 15.5004704,25.1446434 C15.8272025,24.99675 16.0449045,24.6729356 16.0449045,24.3082257 L16.0449045,20.7659219 C16.0449045,20.159453 16.3609755,19.8262961 16.4657053,19.8262961 L23.6908127,19.8262961 C23.7955425,19.8262961 24.1116135,20.1595411 24.1116135,20.7659219 L24.1116135,26.3827884 L20.0782142,26.3827884 C15.7430781,26.3827884 12.2160375,29.8525556 12.2160375,34.1174044 C12.2160375,38.3823414 15.7430781,41.8520205 20.0782142,41.8520205 C21.28758,41.8520205 22.4337854,41.5815288 23.4583285,41.0994209 C23.9484714,40.9430663 24.5216637,41.1740727 24.7956278,41.640933 C24.9535737,41.9100145 25.0028478,42.2356797 24.9309076,42.5344633 C24.8646115,42.8098025 24.7040675,43.0348156 24.4783025,43.1738954 C21.4770613,44.5866392 17.8822016,44.5012347 14.8947572,42.7651172 C14.4494984,42.5061714 13.8757686,42.6517733 13.6128241,43.0896366 C13.3498795,43.5275 13.4977018,44.0921039 13.9426918,44.3507853 C15.8508541,45.4597218 17.9677593,46 20.0712262,46 C23.1942192,46 26.2864831,44.808215 28.6159838,42.5166597 C30.8964791,40.2731389 32.1523417,37.290239 32.1523417,34.1174926 C32.1523417,30.9447461 30.8964791,27.9618462 28.6159838,25.7183255 C27.8286731,24.9437798 26.9446956,24.285839 25.9836713,23.7551677 L25.9836713,20.7659219 C25.9836713,19.2062541 24.9765981,17.9846789 23.6909022,17.9846789 L21.0143327,17.9846789 L21.0143327,17.5952908 C21.8677602,17.4242174 22.5119072,16.6800788 22.5119072,15.7907791 L22.5119072,13.3967208 C22.5119072,12.5074211 21.8677602,11.7632825 21.0143327,11.5922091 L21.0143327,9.63645483 L22.7089141,7.96934835 C22.8243947,7.85574009 22.9195385,7.72988082 22.9984666,7.59714689 L24.7956278,7.59714689 C24.8692702,7.71313484 24.9558134,7.82348204 25.0581244,7.92431047 L26.7788658,9.61715288 C27.143763,9.97613383 27.6231553,10.1557565 28.1026371,10.1557565 C28.470222,10.1557565 28.8372693,10.0491992 29.1532507,9.83811169 L29.5540732,10.2324355 L27.6455526,12.1100125 C27.1770006,12.5708795 26.9769477,13.2463595 27.0969974,13.9633519 C27.1998459,14.5785464 27.5288178,15.1852797 28.023261,15.6717064 L30.1707163,17.7843441 C29.8722944,18.8282357 29.721426,19.9088802 29.721426,21.0045962 C29.721426,26.4282669 33.4458319,31.1590066 38.7787238,32.5088208 C38.8568457,32.5286515 38.9354155,32.5380822 39.0125519,32.5380822 C39.4294108,32.5380822 39.8097174,32.2620379 39.9183892,31.8464731 C40.0472186,31.353965 39.7457506,30.8520263 39.2452153,30.7252856 C34.7399491,29.5849725 31.5934838,25.5876187 31.5934838,21.0045962 C31.5934838,19.9232465 31.7670182,18.8601412 32.1093389,17.8442771 C32.233868,17.5128829 32.1554774,17.1324847 31.8930703,16.8742441 L29.3470324,14.369486 C29.1302263,14.1562832 28.9833894,13.8993646 28.9440597,13.6643921 C28.9201394,13.5209936 28.9459411,13.4351484 28.9692343,13.4121447 L34.0781531,8.38605887 C34.1521538,8.31325792 34.6151513,8.32885812 35.0511823,8.75773151 L39.0882548,12.7294375 L36.2362694,15.5351826 C36.2360007,15.535447 36.2357319,15.5357995 36.2354631,15.5360639 C33.1709719,18.5518388 33.1712407,23.458235 36.2362694,26.4735692 C37.7690526,27.9813245 39.7823926,28.7353343 41.7956431,28.7353343 C43.8088936,28.7353343 45.8222337,27.9814126 47.3550168,26.4735692 C48.2103257,25.6321277 48.8262521,24.6434098 49.2043189,23.5896469 C49.4390428,23.1383868 50.0102641,22.9032379 50.5389305,23.0425821 C50.843982,23.123051 51.1129291,23.3189789 51.2769671,23.5803044 C51.4280146,23.8211821 51.476124,24.0922026 51.416368,24.3476229 C50.3095819,27.4342597 47.7062068,29.8745017 44.3459814,30.7250212 C43.8453564,30.8517619 43.5440677,31.3537006 43.6728075,31.8462087 C43.7814793,32.2617735 44.1617858,32.5378177 44.5786448,32.5378177 C44.6557811,32.5378177 44.7342613,32.528299 44.8125624,32.5085563 C50.1453648,31.1587421 53.8697706,26.4280025 53.8697706,21.0043318 C53.869681,14.4548905 48.4532919,9.12623123 41.7956431,9.12623123 Z M25.9836713,27.303641 L25.9836713,25.9324977 C26.4473855,26.2571935 26.8852083,26.6200525 27.2922124,27.0205458 C29.2191884,28.9161909 30.2803736,31.4365492 30.2803736,34.1174926 C30.2803736,36.7983479 29.2191884,39.3187943 27.2922124,41.2145275 C27.1266514,41.3774042 26.9554463,41.5318197 26.7811951,41.6814759 C26.7161533,41.3473495 26.5943119,41.0226538 26.4169251,40.7203447 C26.1782592,40.3135055 25.8549315,39.9791147 25.481165,39.7287183 C26.9940593,38.3181778 27.9404805,36.3252298 27.9404805,34.1175807 C27.9404805,31.7550753 26.8570773,29.6379427 25.1547912,28.2180597 C25.621193,28.1656184 25.9836713,27.7764947 25.9836713,27.303641 Z M26.0685124,34.1174044 C26.0685124,37.366918 23.3813713,40.0104914 20.0783038,40.0104914 C16.7752363,40.0104914 14.0880952,37.366918 14.0880952,34.1174044 C14.0880952,30.8678909 16.7752363,28.2243175 20.0783038,28.2243175 C23.3813713,28.2243175 26.0685124,30.8678909 26.0685124,34.1174044 Z M20.639939,15.7907791 L19.5167581,15.7907791 L19.5167581,13.3967208 L20.639939,13.3967208 L20.6411933,15.7907791 C20.6411037,15.790691 20.6407453,15.7907791 20.639939,15.7907791 Z M19.6654764,8.36049921 C19.6654764,8.36049921 19.6653868,8.36058735 19.6652972,8.36058735 C19.6652972,8.36058735 19.6650284,8.36041107 19.6645805,8.35988225 L18.8703714,7.57855004 L20.5911129,5.88570763 L21.3853219,6.66703985 L19.6654764,8.36049921 Z M28.1027267,8.31484438 L26.3951549,6.63672081 C26.3947965,6.62799527 26.3944382,6.61909346 26.3938111,6.61036792 L27.1761047,5.84075789 L28.8968462,7.5336003 L28.1027267,8.31484438 Z M46.0314246,25.1715251 C43.6958319,27.46925 39.8956335,27.4693381 37.5599512,25.1715251 C35.2243584,22.8738884 35.2243584,19.1352159 37.5599512,16.8374911 C38.7277475,15.6886286 40.2616953,15.1142415 41.7956431,15.1142415 C43.3295909,15.1142415 44.8635387,15.6886286 46.0313351,16.8374029 C48.3670174,19.1351278 48.3670174,22.8738884 46.0314246,25.1715251 Z M51.0234294,21.2639827 C50.5624029,21.142354 50.0933134,21.130808 49.6490401,21.2138329 C49.7049438,19.1639485 48.9417327,17.0963487 47.3551064,15.5352707 C45.6569414,13.8647269 43.3690102,13.1213816 41.1446873,13.3016212 C41.2753085,13.1395378 41.348055,12.9383216 41.348055,12.7294375 C41.348055,12.4852106 41.2494172,12.2510313 41.0739118,12.0783714 L40.0884296,11.1087791 C40.6497065,11.0157948 41.2201215,10.9678485 41.7957327,10.9678485 C47.4212233,10.9678485 51.9978025,15.4702258 51.9978025,21.0045081 C51.9978025,21.2348094 51.9876789,21.4631717 51.9720903,21.6902119 C51.685763,21.4990433 51.366198,21.3542347 51.0234294,21.2639827 Z" id="path-2"></path>
        <filter x="-30.5%" y="-23.8%" width="161.0%" height="166.7%" filterUnits="objectBoundingBox" id="filter-3">
            <feOffset dx="0" dy="4" in="SourceAlpha" result="shadowOffsetOuter1"></feOffset>
            <feGaussianBlur stdDeviation="4" in="shadowOffsetOuter1" result="shadowBlurOuter1"></feGaussianBlur>
            <feColorMatrix values="0 0 0 0 0.474509804   0 0 0 0 0.521568627   0 0 0 0 0.592156863  0 0 0 0.5 0" type="matrix" in="shadowBlurOuter1"></feColorMatrix>
        </filter>
    </defs>
    <g id="DSD-Real-Estate" stroke="none" stroke-width="1" fill="none" fill-rule="evenodd">
        <g id="icn_handcuffs" fill-rule="nonzero">
            <use fill="black" fill-opacity="1" filter="url(#filter-3)" xlink:href="#path-2"></use>
            <use fill="url(#linearGradient-1)" fill-rule="evenodd" xlink:href="#path-2"></use>
        </g>
    </g>
</svg>