<?xml version="1.0" encoding="UTF-8"?>
<svg width="54px" height="54px" viewBox="0 0 54 54" version="1.1" xmlns="http://www.w3.org/2000/svg" xmlns:xlink="http://www.w3.org/1999/xlink">
    <!-- Generator: Sketch 49.1 (51147) - http://www.bohemiancoding.com/sketch -->
    <title>icn_shopping</title>
    <desc>Created with Sketch.</desc>
    <defs>
        <linearGradient x1="50%" y1="0%" x2="50%" y2="100%" id="linearGradient-1">
            <stop stop-color="#B1BBC8" offset="0%"></stop>
            <stop stop-color="#798597" offset="100%"></stop>
        </linearGradient>
        <path d="M46.2099791,33.4285714 L46.9908725,40.4151786 C47.0354952,40.8318473 46.9165031,41.2038674 46.6338927,41.53125 C46.3512822,41.8437516 45.9943059,42 45.5629531,42 L8.43704693,42 C8.0056941,42 7.6487178,41.8437516 7.36610733,41.53125 C7.08349685,41.2038674 6.96450476,40.8318473 7.00912746,40.4151786 L7.79002092,33.4285714 L46.2099791,33.4285714 Z M44.1350336,14.7008929 L46.0538004,32 L7.94619961,32 L9.8649664,14.7008929 C9.9095891,14.3437482 10.0657662,14.0424119 10.3335025,13.796875 C10.6012387,13.5513381 10.92103,13.4285714 11.2928859,13.4285714 L17.0045637,13.4285714 L17.0045637,16.2857143 C17.0045637,17.0744087 17.2834515,17.7477651 17.8412353,18.3058036 C18.3990191,18.8638421 19.0720682,19.1428571 19.8604027,19.1428571 C20.6487371,19.1428571 21.3217862,18.8638421 21.87957,18.3058036 C22.4373539,17.7477651 22.7162416,17.0744087 22.7162416,16.2857143 L22.7162416,13.4285714 L31.2837584,13.4285714 L31.2837584,16.2857143 C31.2837584,17.0744087 31.5626461,17.7477651 32.12043,18.3058036 C32.6782138,18.8638421 33.3512629,19.1428571 34.1395973,19.1428571 C34.9279318,19.1428571 35.6009809,18.8638421 36.1587647,18.3058036 C36.7165485,17.7477651 36.9954363,17.0744087 36.9954363,16.2857143 L36.9954363,13.4285714 L42.7071141,13.4285714 C43.07897,13.4285714 43.3987613,13.5513381 43.6664975,13.796875 C43.9342338,14.0424119 44.0904109,14.3437482 44.1350336,14.7008929 Z M35.5675168,10.5714286 L35.5675168,16.2857143 C35.5675168,16.672621 35.4262137,17.0074391 35.1436032,17.2901786 C34.8609927,17.5729181 34.5263275,17.7142857 34.1395973,17.7142857 C33.7528672,17.7142857 33.4182019,17.5729181 33.1355915,17.2901786 C32.852981,17.0074391 32.7116779,16.672621 32.7116779,16.2857143 L32.7116779,10.5714286 C32.7116779,8.99403973 32.1539024,7.64732701 31.0383347,6.53125 C29.9227671,5.41517299 28.576669,4.85714286 27,4.85714286 C25.423331,4.85714286 24.0772329,5.41517299 22.9616653,6.53125 C21.8460976,7.64732701 21.2883221,8.99403973 21.2883221,10.5714286 L21.2883221,16.2857143 C21.2883221,16.672621 21.147019,17.0074391 20.8644085,17.2901786 C20.5817981,17.5729181 20.2471328,17.7142857 19.8604027,17.7142857 C19.4736725,17.7142857 19.1390073,17.5729181 18.8563968,17.2901786 C18.5737863,17.0074391 18.4324832,16.672621 18.4324832,16.2857143 L18.4324832,10.5714286 C18.4324832,8.20534531 19.2691464,6.18527623 20.9424979,4.51116071 C22.6158494,2.8370452 24.6349966,2 27,2 C29.3650034,2 31.3841506,2.8370452 33.0575021,4.51116071 C34.7308536,6.18527623 35.5675168,8.20534531 35.5675168,10.5714286 Z" id="path-2"></path>
        <filter x="-32.5%" y="-20.0%" width="165.0%" height="165.0%" filterUnits="objectBoundingBox" id="filter-3">
            <feOffset dx="0" dy="5" in="SourceAlpha" result="shadowOffsetOuter1"></feOffset>
            <feGaussianBlur stdDeviation="3.5" in="shadowOffsetOuter1" result="shadowBlurOuter1"></feGaussianBlur>
            <feColorMatrix values="0 0 0 0 0.474509804   0 0 0 0 0.521568627   0 0 0 0 0.592156863  0 0 0 0.5 0" type="matrix" in="shadowBlurOuter1"></feColorMatrix>
        </filter>
    </defs>
    <g id="DSD-Real-Estate" stroke="none" stroke-width="1" fill="none" fill-rule="evenodd">
        <g id="icn_shopping">
            <use fill="black" fill-opacity="1" filter="url(#filter-3)" xlink:href="#path-2"></use>
            <use fill="url(#linearGradient-1)" fill-rule="evenodd" xlink:href="#path-2"></use>
        </g>
    </g>
</svg>