<?xml version="1.0" encoding="UTF-8"?>
<svg width="56px" height="55px" viewBox="0 0 56 55" version="1.1" xmlns="http://www.w3.org/2000/svg" xmlns:xlink="http://www.w3.org/1999/xlink">
    <!-- Generator: Sketch 49.1 (51147) - http://www.bohemiancoding.com/sketch -->
    <title>icn_mosque</title>
    <desc>Created with Sketch.</desc>
    <defs>
        <linearGradient x1="50%" y1="0%" x2="50%" y2="100%" id="linearGradient-1">
            <stop stop-color="#B1BBC8" offset="0%"></stop>
            <stop stop-color="#798597" offset="100%"></stop>
        </linearGradient>
        <path d="M42.7923607,42.8288948 L35.2614411,42.8288948 C35.2614411,41.5408611 35.2614411,40.3236692 35.2614411,39.1129176 C35.1713749,35.3582993 32.3723946,33.0269583 27.9799355,33.0269583 C23.5874764,33.0269583 20.7538554,35.38406 20.6707173,39.093597 C20.6707173,40.2721479 20.6707173,41.4506987 20.6707173,42.7709333 L13.1882949,42.7709333 L13.1882949,24.3906922 L42.7923607,24.3906922 L42.7923607,42.8288948 Z M28.2362778,1 C29.6704087,4.68377642 32.8157974,6.61582699 36.1482467,8.44483486 C39.854817,10.4799281 40.9979649,13.3651236 39.9033142,16.8878958 C39.8446424,17.3081271 39.6087215,17.6894594 39.2474882,17.9479445 C38.8862549,18.2064296 38.4293229,18.320877 37.9772833,18.2660919 C31.3400975,18.218864 24.7029116,18.218864 18.0657258,18.2660919 C17.6155244,18.3328553 17.1552349,18.2305632 16.7861997,17.9817374 C16.4171645,17.7329116 16.1696407,17.3579533 16.0981259,16.9394172 C15.0658287,13.7193329 16.0981259,10.8083767 19.0703103,8.90208683 C20.781568,7.81369834 22.707599,6.97003626 24.2179398,5.68200254 C25.7282806,4.39396883 26.7882905,2.73884551 28.2362778,1 Z M48.8198676,42.835335 L45.3557832,42.835335 C45.3211423,42.1526771 45.265717,41.5473013 45.265717,40.9032844 C45.265717,33.0720394 45.3211423,25.2407945 45.2241479,17.4159897 C45.2241479,15.5676613 45.8684677,14.1186234 47.3025986,12.2638548 C47.9469183,13.8416961 48.8960775,15.1168495 48.916862,16.4048832 C49.0484972,24.7771023 48.9861437,33.1493215 48.9792155,41.5215406 C48.9499588,41.961689 48.8967749,42.4001805 48.8198676,42.835335 Z M8.9343992,12.5665427 C10.1288837,13.9354424 10.7883669,15.6405769 10.8050048,17.4031093 C10.7080104,25.1763928 10.7634358,32.9432361 10.7634358,40.7165195 L10.7634358,42.5197667 C10.5486626,42.7000914 10.4655245,42.8224546 10.3754583,42.8288948 C7.04300909,43.2088648 7.04300909,43.2088648 7.04300909,40.085383 C7.04300909,32.5825866 7.09843444,25.0797903 7.00144008,17.544793 C6.9641432,15.7207084 7.65244852,13.9480087 8.9343992,12.5665427 Z M23.0262948,42.796694 C23.2964934,40.3107889 22.0009258,37.5221959 24.9107567,35.8284316 C26.770637,34.7257859 29.1455555,34.710768 31.0214017,35.7897906 C33.9797298,37.4384737 32.6841622,40.2592676 32.9959298,42.796694 L23.0262948,42.796694 Z M17.2482019,21.9498683 L17.2482019,20.5072706 L38.6562438,20.5072706 L38.8225199,21.9498683 L17.2482019,21.9498683 Z" id="path-2"></path>
        <filter x="-31.0%" y="-19.0%" width="161.9%" height="161.9%" filterUnits="objectBoundingBox" id="filter-3">
            <feOffset dx="0" dy="5" in="SourceAlpha" result="shadowOffsetOuter1"></feOffset>
            <feGaussianBlur stdDeviation="3.5" in="shadowOffsetOuter1" result="shadowBlurOuter1"></feGaussianBlur>
            <feColorMatrix values="0 0 0 0 0.474509804   0 0 0 0 0.521568627   0 0 0 0 0.592156863  0 0 0 0.5 0" type="matrix" in="shadowBlurOuter1"></feColorMatrix>
        </filter>
    </defs>
    <g id="DSD-Real-Estate" stroke="none" stroke-width="1" fill="none" fill-rule="evenodd">
        <g id="icn_mosque" fill-rule="nonzero">
            <use fill="black" fill-opacity="1" filter="url(#filter-3)" xlink:href="#path-2"></use>
            <use fill="url(#linearGradient-1)" fill-rule="evenodd" xlink:href="#path-2"></use>
        </g>
    </g>
</svg>