<?xml version="1.0" encoding="UTF-8"?>
<svg width="23px" height="23px" viewBox="0 0 23 23" version="1.1" xmlns="http://www.w3.org/2000/svg" xmlns:xlink="http://www.w3.org/1999/xlink">
    <!-- Generator: Sketch 49.1 (51147) - http://www.bohemiancoding.com/sketch -->
    <title>icn_up</title>
    <desc>Created with Sketch.</desc>
    <defs>
        <linearGradient x1="50%" y1="0%" x2="50%" y2="100%" id="linearGradient-1">
            <stop stop-color="#D4EEA5" offset="0%"></stop>
            <stop stop-color="#A9D96C" offset="100%"></stop>
        </linearGradient>
        <path d="M1133.92188,129.128571 L1140.85938,135.428571 C1140.95313,135.542858 1141,135.664285 1141,135.792857 C1141,135.921429 1140.95313,136.042857 1140.85938,136.157143 L1139.92188,137.014286 C1139.79687,137.1 1139.65625,137.142857 1139.5,137.142857 C1139.34375,137.142857 1139.21875,137.1 1139.125,137.014286 L1133.5,131.914286 L1127.875,137.014286 C1127.78125,137.1 1127.65625,137.142857 1127.5,137.142857 C1127.34375,137.142857 1127.20313,137.1 1127.07812,137.014286 L1126.1875,136.157143 C1126.0625,136.042857 1126,135.921429 1126,135.792857 C1126,135.664285 1126.04687,135.542858 1126.14062,135.428571 L1133.125,129.128571 C1133.21875,129.042857 1133.34375,129 1133.5,129 C1133.65625,129 1133.79687,129.042857 1133.92188,129.128571 Z M1133.07812,135.985714 C1133.20313,135.9 1133.34375,135.857143 1133.5,135.857143 C1133.65625,135.857143 1133.79687,135.9 1133.92188,135.985714 L1140.85938,142.285714 C1140.95313,142.400001 1141,142.521428 1141,142.65 C1141,142.778572 1140.95313,142.899999 1140.85938,143.014286 L1139.92188,143.871429 C1139.79687,143.957143 1139.65625,144 1139.5,144 C1139.34375,144 1139.21875,143.957143 1139.125,143.871429 L1133.5,138.771429 L1127.875,143.871429 C1127.78125,143.957143 1127.65625,144 1127.5,144 C1127.34375,144 1127.20313,143.957143 1127.07812,143.871429 L1126.14062,143.014286 C1126.04687,142.899999 1126,142.778572 1126,142.65 C1126,142.521428 1126.0625,142.400001 1126.1875,142.285714 L1133.125,135.985714 L1133.07812,135.985714 Z" id="path-2"></path>
        <filter x="-40.0%" y="-40.0%" width="180.0%" height="180.0%" filterUnits="objectBoundingBox" id="filter-3">
            <feOffset dx="0" dy="0" in="SourceAlpha" result="shadowOffsetOuter1"></feOffset>
            <feGaussianBlur stdDeviation="2" in="shadowOffsetOuter1" result="shadowBlurOuter1"></feGaussianBlur>
            <feColorMatrix values="0 0 0 0 0.662745098   0 0 0 0 0.850980392   0 0 0 0 0.423529412  0 0 0 1 0" type="matrix" in="shadowBlurOuter1"></feColorMatrix>
        </filter>
    </defs>
    <g id="Page-1" stroke="none" stroke-width="1" fill="none" fill-rule="evenodd">
        <g id="3" transform="translate(-1122.000000, -125.000000)">
            <g id="icn_up">
                <use fill="black" fill-opacity="1" filter="url(#filter-3)" xlink:href="#path-2"></use>
                <use fill="url(#linearGradient-1)" fill-rule="evenodd" xlink:href="#path-2"></use>
            </g>
        </g>
    </g>
</svg>