<?xml version="1.0" encoding="UTF-8"?>
<svg width="23px" height="23px" viewBox="0 0 23 23" version="1.1" xmlns="http://www.w3.org/2000/svg" xmlns:xlink="http://www.w3.org/1999/xlink">
    <!-- Generator: Sketch 49.1 (51147) - http://www.bohemiancoding.com/sketch -->
    <title>icn_down</title>
    <desc>Created with Sketch.</desc>
    <defs>
        <linearGradient x1="50%" y1="100%" x2="50%" y2="3.061617e-15%" id="linearGradient-1">
            <stop stop-color="#E65661" offset="0%"></stop>
            <stop stop-color="#C92B32" offset="100%"></stop>
        </linearGradient>
        <path d="M1254.125,207.871429 L1247.1875,201.571429 C1247.0625,201.457142 1247,201.335715 1247,201.207143 C1247,201.078571 1247.04687,200.957143 1247.14062,200.842857 L1248.07812,199.985714 C1248.20313,199.9 1248.34375,199.857143 1248.5,199.857143 C1248.65625,199.857143 1248.78125,199.9 1248.875,199.985714 L1254.5,205.085714 L1260.125,199.985714 C1260.21875,199.9 1260.34375,199.857143 1260.5,199.857143 C1260.65625,199.857143 1260.79687,199.9 1260.92188,199.985714 L1261.85938,200.842857 C1261.95313,200.957143 1262,201.078571 1262,201.207143 C1262,201.335715 1261.95313,201.457142 1261.85938,201.571429 L1254.92188,207.871429 C1254.79687,207.957143 1254.65625,208 1254.5,208 C1254.34375,208 1254.20313,207.957143 1254.07812,207.871429 L1254.125,207.871429 Z M1254.92188,201.014286 C1254.79687,201.1 1254.65625,201.142857 1254.5,201.142857 C1254.34375,201.142857 1254.21875,201.1 1254.125,201.014286 L1247.14062,194.714286 C1247.04687,194.599999 1247,194.478572 1247,194.35 C1247,194.221428 1247.0625,194.100001 1247.1875,193.985714 L1248.07812,193.128571 C1248.20313,193.042857 1248.34375,193 1248.5,193 C1248.65625,193 1248.78125,193.042857 1248.875,193.128571 L1254.5,198.228571 L1260.125,193.128571 C1260.21875,193.042857 1260.34375,193 1260.5,193 C1260.65625,193 1260.79687,193.042857 1260.92188,193.128571 L1261.85938,193.985714 C1261.95313,194.100001 1262,194.221428 1262,194.35 C1262,194.478572 1261.95313,194.599999 1261.85938,194.714286 L1254.92188,201.014286 Z" id="path-2"></path>
        <filter x="-40.0%" y="-40.0%" width="180.0%" height="180.0%" filterUnits="objectBoundingBox" id="filter-3">
            <feOffset dx="0" dy="0" in="SourceAlpha" result="shadowOffsetOuter1"></feOffset>
            <feGaussianBlur stdDeviation="2" in="shadowOffsetOuter1" result="shadowBlurOuter1"></feGaussianBlur>
            <feColorMatrix values="0 0 0 0 0.788235294   0 0 0 0 0.168627451   0 0 0 0 0.196078431  0 0 0 1 0" type="matrix" in="shadowBlurOuter1"></feColorMatrix>
        </filter>
    </defs>
    <g id="Page-1" stroke="none" stroke-width="1" fill="none" fill-rule="evenodd">
        <g id="3" transform="translate(-1243.000000, -189.000000)">
            <g id="icn_down">
                <use fill="black" fill-opacity="1" filter="url(#filter-3)" xlink:href="#path-2"></use>
                <use fill="url(#linearGradient-1)" fill-rule="evenodd" xlink:href="#path-2"></use>
            </g>
        </g>
    </g>
</svg>