<?xml version="1.0" encoding="UTF-8"?>
<svg width="49px" height="56px" viewBox="0 0 49 56" version="1.1" xmlns="http://www.w3.org/2000/svg" xmlns:xlink="http://www.w3.org/1999/xlink">
    <!-- Generator: Sketch 49.1 (51147) - http://www.bohemiancoding.com/sketch -->
    <title>icn_hospital</title>
    <desc>Created with Sketch.</desc>
    <defs>
        <linearGradient x1="50%" y1="0%" x2="50%" y2="100%" id="linearGradient-1">
            <stop stop-color="#B1BBC8" offset="0%"></stop>
            <stop stop-color="#798597" offset="100%"></stop>
        </linearGradient>
        <path d="M16.5454545,32.75 L16.5454545,34.25 C16.5454545,34.453126 16.4667385,34.6289055 16.309304,34.7773438 C16.1518695,34.925782 15.9654367,35 15.75,35 L14.1590909,35 C13.9436542,35 13.7572214,34.925782 13.5997869,34.7773438 C13.4423524,34.6289055 13.3636364,34.453126 13.3636364,34.25 L13.3636364,32.75 C13.3636364,32.546874 13.4423524,32.3710945 13.5997869,32.2226563 C13.7572214,32.074218 13.9436542,32 14.1590909,32 L15.75,32 C15.9654367,32 16.1518695,32.074218 16.309304,32.2226563 C16.4667385,32.3710945 16.5454545,32.546874 16.5454545,32.75 Z M16.5454545,26.75 L16.5454545,28.25 C16.5454545,28.453126 16.4667385,28.6289055 16.309304,28.7773438 C16.1518695,28.925782 15.9654367,29 15.75,29 L14.1590909,29 C13.9436542,29 13.7572214,28.925782 13.5997869,28.7773438 C13.4423524,28.6289055 13.3636364,28.453126 13.3636364,28.25 L13.3636364,26.75 C13.3636364,26.546874 13.4423524,26.3710945 13.5997869,26.2226562 C13.7572214,26.074218 13.9436542,26 14.1590909,26 L15.75,26 C15.9654367,26 16.1518695,26.074218 16.309304,26.2226562 C16.4667385,26.3710945 16.5454545,26.546874 16.5454545,26.75 Z M22.9090909,26.75 L22.9090909,28.25 C22.9090909,28.453126 22.8303748,28.6289055 22.6729403,28.7773438 C22.5155058,28.925782 22.329073,29 22.1136364,29 L20.5227273,29 C20.3072906,29 20.1208578,28.925782 19.9634233,28.7773438 C19.8059888,28.6289055 19.7272727,28.453126 19.7272727,28.25 L19.7272727,26.75 C19.7272727,26.546874 19.8059888,26.3710945 19.9634233,26.2226562 C20.1208578,26.074218 20.3072906,26 20.5227273,26 L22.1136364,26 C22.329073,26 22.5155058,26.074218 22.6729403,26.2226562 C22.8303748,26.3710945 22.9090909,26.546874 22.9090909,26.75 Z M16.5454545,20.75 L16.5454545,22.25 C16.5454545,22.453126 16.4667385,22.6289055 16.309304,22.7773437 C16.1518695,22.925782 15.9654367,23 15.75,23 L14.1590909,23 C13.9436542,23 13.7572214,22.925782 13.5997869,22.7773437 C13.4423524,22.6289055 13.3636364,22.453126 13.3636364,22.25 L13.3636364,20.75 C13.3636364,20.546874 13.4423524,20.3710945 13.5997869,20.2226562 C13.7572214,20.074218 13.9436542,20 14.1590909,20 L15.75,20 C15.9654367,20 16.1518695,20.074218 16.309304,20.2226562 C16.4667385,20.3710945 16.5454545,20.546874 16.5454545,20.75 Z M35.6363636,32.75 L35.6363636,34.25 C35.6363636,34.453126 35.5576476,34.6289055 35.4002131,34.7773438 C35.2427786,34.925782 35.0563458,35 34.8409091,35 L33.25,35 C33.0345633,35 32.8481305,34.925782 32.690696,34.7773438 C32.5332615,34.6289055 32.4545455,34.453126 32.4545455,34.25 L32.4545455,32.75 C32.4545455,32.546874 32.5332615,32.3710945 32.690696,32.2226563 C32.8481305,32.074218 33.0345633,32 33.25,32 L34.8409091,32 C35.0563458,32 35.2427786,32.074218 35.4002131,32.2226563 C35.5576476,32.3710945 35.6363636,32.546874 35.6363636,32.75 Z M29.2727273,26.75 L29.2727273,28.25 C29.2727273,28.453126 29.1940112,28.6289055 29.0365767,28.7773438 C28.8791422,28.925782 28.6927094,29 28.4772727,29 L26.8863636,29 C26.670927,29 26.4844942,28.925782 26.3270597,28.7773438 C26.1696252,28.6289055 26.0909091,28.453126 26.0909091,28.25 L26.0909091,26.75 C26.0909091,26.546874 26.1696252,26.3710945 26.3270597,26.2226562 C26.4844942,26.074218 26.670927,26 26.8863636,26 L28.4772727,26 C28.6927094,26 28.8791422,26.074218 29.0365767,26.2226562 C29.1940112,26.3710945 29.2727273,26.546874 29.2727273,26.75 Z M22.9090909,20.75 L22.9090909,22.25 C22.9090909,22.453126 22.8303748,22.6289055 22.6729403,22.7773437 C22.5155058,22.925782 22.329073,23 22.1136364,23 L20.5227273,23 C20.3072906,23 20.1208578,22.925782 19.9634233,22.7773437 C19.8059888,22.6289055 19.7272727,22.453126 19.7272727,22.25 L19.7272727,20.75 C19.7272727,20.546874 19.8059888,20.3710945 19.9634233,20.2226562 C20.1208578,20.074218 20.3072906,20 20.5227273,20 L22.1136364,20 C22.329073,20 22.5155058,20.074218 22.6729403,20.2226562 C22.8303748,20.3710945 22.9090909,20.546874 22.9090909,20.75 Z M35.6363636,26.75 L35.6363636,28.25 C35.6363636,28.453126 35.5576476,28.6289055 35.4002131,28.7773438 C35.2427786,28.925782 35.0563458,29 34.8409091,29 L33.25,29 C33.0345633,29 32.8481305,28.925782 32.690696,28.7773438 C32.5332615,28.6289055 32.4545455,28.453126 32.4545455,28.25 L32.4545455,26.75 C32.4545455,26.546874 32.5332615,26.3710945 32.690696,26.2226562 C32.8481305,26.074218 33.0345633,26 33.25,26 L34.8409091,26 C35.0563458,26 35.2427786,26.074218 35.4002131,26.2226562 C35.5576476,26.3710945 35.6363636,26.546874 35.6363636,26.75 Z M29.2727273,20.75 L29.2727273,22.25 C29.2727273,22.453126 29.1940112,22.6289055 29.0365767,22.7773437 C28.8791422,22.925782 28.6927094,23 28.4772727,23 L26.8863636,23 C26.670927,23 26.4844942,22.925782 26.3270597,22.7773437 C26.1696252,22.6289055 26.0909091,22.453126 26.0909091,22.25 L26.0909091,20.75 C26.0909091,20.546874 26.1696252,20.3710945 26.3270597,20.2226562 C26.4844942,20.074218 26.670927,20 26.8863636,20 L28.4772727,20 C28.6927094,20 28.8791422,20.074218 29.0365767,20.2226562 C29.1940112,20.3710945 29.2727273,20.546874 29.2727273,20.75 Z M35.6363636,20.75 L35.6363636,22.25 C35.6363636,22.453126 35.5576476,22.6289055 35.4002131,22.7773437 C35.2427786,22.925782 35.0563458,23 34.8409091,23 L33.25,23 C33.0345633,23 32.8481305,22.925782 32.690696,22.7773437 C32.5332615,22.6289055 32.4545455,22.453126 32.4545455,22.25 L32.4545455,20.75 C32.4545455,20.546874 32.5332615,20.3710945 32.690696,20.2226562 C32.8481305,20.074218 33.0345633,20 33.25,20 L34.8409091,20 C35.0563458,20 35.2427786,20.074218 35.4002131,20.2226562 C35.5576476,20.3710945 35.6363636,20.546874 35.6363636,20.75 Z M29.2727273,41 L38.8181818,41 L38.8181818,14 L32.4545455,14 L32.4545455,14.75 C32.4545455,15.3750031 32.2225402,15.9062478 31.7585227,16.34375 C31.2945053,16.7812522 30.7310639,17 30.0681818,17 L18.9318182,17 C18.2689361,17 17.7054947,16.7812522 17.2414773,16.34375 C16.7774598,15.9062478 16.5454545,15.3750031 16.5454545,14.75 L16.5454545,14 L10.1818182,14 L10.1818182,41 L19.7272727,41 L19.7272727,35.75 C19.7272727,35.546874 19.8059888,35.3710945 19.9634233,35.2226562 C20.1208578,35.074218 20.3072906,35 20.5227273,35 L28.4772727,35 C28.6927094,35 28.8791422,35.074218 29.0365767,35.2226562 C29.1940112,35.3710945 29.2727273,35.546874 29.2727273,35.75 L29.2727273,41 Z M29.2727273,13.25 L29.2727273,5.75 C29.2727273,5.54687398 29.1940112,5.37109449 29.0365767,5.22265625 C28.8791422,5.07421801 28.6927094,5 28.4772727,5 L26.8863636,5 C26.670927,5 26.4844942,5.07421801 26.3270597,5.22265625 C26.1696252,5.37109449 26.0909091,5.54687398 26.0909091,5.75 L26.0909091,8 L22.9090909,8 L22.9090909,5.75 C22.9090909,5.54687398 22.8303748,5.37109449 22.6729403,5.22265625 C22.5155058,5.07421801 22.329073,5 22.1136364,5 L20.5227273,5 C20.3072906,5 20.1208578,5.07421801 19.9634233,5.22265625 C19.8059888,5.37109449 19.7272727,5.54687398 19.7272727,5.75 L19.7272727,13.25 C19.7272727,13.453126 19.8059888,13.6289055 19.9634233,13.7773438 C20.1208578,13.925782 20.3072906,14 20.5227273,14 L22.1136364,14 C22.329073,14 22.5155058,13.925782 22.6729403,13.7773438 C22.8303748,13.6289055 22.9090909,13.453126 22.9090909,13.25 L22.9090909,11 L26.0909091,11 L26.0909091,13.25 C26.0909091,13.453126 26.1696252,13.6289055 26.3270597,13.7773438 C26.4844942,13.925782 26.670927,14 26.8863636,14 L28.4772727,14 C28.6927094,14 28.8791422,13.925782 29.0365767,13.7773438 C29.1940112,13.6289055 29.2727273,13.453126 29.2727273,13.25 Z M42,12.5 L42,42.5 C42,42.906252 41.8425679,43.257811 41.5276989,43.5546875 C41.2128299,43.851564 40.8399643,44 40.4090909,44 L8.59090909,44 C8.16003572,44 7.78717013,43.851564 7.47230114,43.5546875 C7.15743214,43.257811 7,42.906252 7,42.5 L7,12.5 C7,12.093748 7.15743214,11.742189 7.47230114,11.4453125 C7.78717013,11.148436 8.16003572,11 8.59090909,11 L16.5454545,11 L16.5454545,4.25 C16.5454545,3.62499687 16.7774598,3.09375219 17.2414773,2.65625 C17.7054947,2.21874781 18.2689361,2 18.9318182,2 L30.0681818,2 C30.7310639,2 31.2945053,2.21874781 31.7585227,2.65625 C32.2225402,3.09375219 32.4545455,3.62499687 32.4545455,4.25 L32.4545455,11 L40.4090909,11 C40.8399643,11 41.2128299,11.148436 41.5276989,11.4453125 C41.8425679,11.742189 42,12.093748 42,12.5 Z" id="path-2"></path>
        <filter x="-37.1%" y="-19.0%" width="174.3%" height="161.9%" filterUnits="objectBoundingBox" id="filter-3">
            <feOffset dx="0" dy="5" in="SourceAlpha" result="shadowOffsetOuter1"></feOffset>
            <feGaussianBlur stdDeviation="3.5" in="shadowOffsetOuter1" result="shadowBlurOuter1"></feGaussianBlur>
            <feColorMatrix values="0 0 0 0 0.474509804   0 0 0 0 0.521568627   0 0 0 0 0.592156863  0 0 0 0.5 0" type="matrix" in="shadowBlurOuter1"></feColorMatrix>
        </filter>
    </defs>
    <g id="DSD-Real-Estate" stroke="none" stroke-width="1" fill="none" fill-rule="evenodd">
        <g id="icn_hospital">
            <use fill="black" fill-opacity="1" filter="url(#filter-3)" xlink:href="#path-2"></use>
            <use fill="url(#linearGradient-1)" fill-rule="evenodd" xlink:href="#path-2"></use>
        </g>
    </g>
</svg>