<?xml version="1.0" encoding="UTF-8"?>
<svg width="62px" height="56px" viewBox="0 0 62 56" version="1.1" xmlns="http://www.w3.org/2000/svg" xmlns:xlink="http://www.w3.org/1999/xlink">
    <!-- Generator: Sketch 49.1 (51147) - http://www.bohemiancoding.com/sketch -->
    <title>icn_car</title>
    <desc>Created with Sketch.</desc>
    <defs>
        <linearGradient x1="50%" y1="0%" x2="50%" y2="100%" id="linearGradient-1">
            <stop stop-color="#B1BBC8" offset="0%"></stop>
            <stop stop-color="#798597" offset="100%"></stop>
        </linearGradient>
        <path d="M13.1510417,19.0146628 L48.8489583,19.0146628 L45.015625,7.75366569 L16.984375,7.75366569 L13.1510417,19.0146628 Z M42.2604167,30.3929619 C43.0590318,31.0967777 43.9774254,31.4486804 45.015625,31.4486804 C46.0538246,31.4486804 46.9522532,31.0772276 47.7109375,30.3343109 C48.4696218,29.5913941 48.8489583,28.7116375 48.8489583,27.6950147 C48.8489583,26.6783918 48.4696218,25.7986352 47.7109375,25.0557185 C46.9522532,24.3128018 46.0538246,23.941349 45.015625,23.941349 C43.9774254,23.941349 43.0789968,24.3128018 42.3203125,25.0557185 C41.5616282,25.7986352 41.1822917,26.6783918 41.1822917,27.6950147 C41.1822917,28.7116375 41.5416631,29.6109443 42.2604167,30.3929619 Z M14.2291667,30.3929619 C15.0277818,31.0967777 15.9461754,31.4486804 16.984375,31.4486804 C18.0225746,31.4486804 18.9210032,31.0772276 19.6796875,30.3343109 C20.4383718,29.5913941 20.8177083,28.7116375 20.8177083,27.6950147 C20.8177083,26.6783918 20.4383718,25.7986352 19.6796875,25.0557185 C18.9210032,24.3128018 18.0225746,23.941349 16.984375,23.941349 C15.9461754,23.941349 15.0477468,24.3128018 14.2890625,25.0557185 C13.5303782,25.7986352 13.1510417,26.6783918 13.1510417,27.6950147 C13.1510417,28.7116375 13.5104131,29.6109443 14.2291667,30.3929619 Z M48.7291667,6.46334311 L54,21.4780059 L54,41.5366569 C54,42.2404727 53.7604191,42.8269771 53.28125,43.2961877 C52.8020809,43.7653982 52.2031286,44 51.484375,44 L48.8489583,44 C48.1302047,44 47.5312524,43.7653982 47.0520833,43.2961877 C46.5729143,42.8269771 46.3333333,42.2404727 46.3333333,41.5366569 L46.3333333,38.9560117 L15.6666667,38.9560117 L15.6666667,41.5366569 C15.6666667,42.2404727 15.4270857,42.8269771 14.9479167,43.2961877 C14.4687476,43.7653982 13.8697953,44 13.1510417,44 L10.515625,44 C9.79687141,44 9.19791906,43.7653982 8.71875,43.2961877 C8.23958094,42.8269771 8,42.2404727 8,41.5366569 L8,21.4780059 L13.2708333,6.46334311 C13.7500024,4.82110616 14.9878372,4 16.984375,4 L45.015625,4 C47.0121628,4 48.2499976,4.82110616 48.7291667,6.46334311 Z" id="path-2"></path>
        <filter x="-30.4%" y="-25.0%" width="160.9%" height="170.0%" filterUnits="objectBoundingBox" id="filter-3">
            <feOffset dx="0" dy="4" in="SourceAlpha" result="shadowOffsetOuter1"></feOffset>
            <feGaussianBlur stdDeviation="4" in="shadowOffsetOuter1" result="shadowBlurOuter1"></feGaussianBlur>
            <feColorMatrix values="0 0 0 0 0.474509804   0 0 0 0 0.521568627   0 0 0 0 0.592156863  0 0 0 0.5 0" type="matrix" in="shadowBlurOuter1"></feColorMatrix>
        </filter>
    </defs>
    <g id="DSD-Real-Estate" stroke="none" stroke-width="1" fill="none" fill-rule="evenodd">
        <g id="icn_car">
            <use fill="black" fill-opacity="1" filter="url(#filter-3)" xlink:href="#path-2"></use>
            <use fill="url(#linearGradient-1)" fill-rule="evenodd" xlink:href="#path-2"></use>
        </g>
    </g>
</svg>