<?xml version="1.0" encoding="UTF-8"?>
<svg width="54px" height="54px" viewBox="0 0 54 54" version="1.1" xmlns="http://www.w3.org/2000/svg" xmlns:xlink="http://www.w3.org/1999/xlink">
    <!-- Generator: Sketch 49.1 (51147) - http://www.bohemiancoding.com/sketch -->
    <title>icn_cart</title>
    <desc>Created with Sketch.</desc>
    <defs>
        <linearGradient x1="50%" y1="0%" x2="50%" y2="100%" id="linearGradient-1">
            <stop stop-color="#B1BBC8" offset="0%"></stop>
            <stop stop-color="#798597" offset="100%"></stop>
        </linearGradient>
        <path d="M39.0383693,34.0192308 C40.125505,34.0192308 41.052754,34.4198678 41.8201439,35.2211538 C42.5875338,36.0224399 42.971223,36.9679433 42.971223,38.0576923 C42.971223,39.1474413 42.5875338,40.0769192 41.8201439,40.8461538 C41.052754,41.6153885 40.125505,42 39.0383693,42 C37.9512336,42 37.0079976,41.6153885 36.2086331,40.8461538 C35.4092686,40.0769192 35.0095923,39.1474413 35.0095923,38.0576923 C35.0095923,36.9679433 35.4092686,36.0224399 36.2086331,35.2211538 C37.0079976,34.4198678 37.9512336,34.0192308 39.0383693,34.0192308 Z M7,2 L13.5707434,2 L15.441247,5.94230769 L45.0335731,5.94230769 C45.577141,5.94230769 46.0407655,6.1426262 46.4244604,6.54326923 C46.8081554,6.94391226 47,7.43268942 47,8.00961538 C47,8.36218125 46.9040777,8.66666538 46.7122302,8.92307692 L39.6139089,21.9038462 C39.2621885,22.5128236 38.7745835,23.0096135 38.1510791,23.3942308 C37.5275748,23.7788481 36.8481252,23.9711538 36.1127098,23.9711538 L21.2446043,23.9711538 L19.470024,27.2403846 L19.3741007,27.5288462 C19.3741007,27.6570519 19.4220619,27.7692303 19.5179856,27.8653846 C19.6139094,27.9615389 19.7258187,28.0096154 19.853717,28.0096154 L42.971223,28.0096154 L42.971223,32.0480769 L18.9904077,32.0480769 C17.9032719,32.0480769 16.976023,31.6474399 16.2086331,30.8461538 C15.4412432,30.0448678 15.057554,29.0993644 15.057554,28.0096154 C15.057554,27.400638 15.2174245,26.7756442 15.5371703,26.1346154 L18.2230216,21.1346154 L11.028777,5.94230769 L7,5.94230769 L7,2 Z M18.9904077,34.0192308 C20.0775434,34.0192308 21.0207794,34.4198678 21.8201439,35.2211538 C22.6195084,36.0224399 23.0191847,36.9679433 23.0191847,38.0576923 C23.0191847,39.1474413 22.6195084,40.0769192 21.8201439,40.8461538 C21.0207794,41.6153885 20.0775434,42 18.9904077,42 C17.9032719,42 16.976023,41.6153885 16.2086331,40.8461538 C15.4412432,40.0769192 15.057554,39.1474413 15.057554,38.0576923 C15.057554,36.9679433 15.4412432,36.0224399 16.2086331,35.2211538 C16.976023,34.4198678 17.9032719,34.0192308 18.9904077,34.0192308 Z" id="path-2"></path>
        <filter x="-32.5%" y="-20.0%" width="165.0%" height="165.0%" filterUnits="objectBoundingBox" id="filter-3">
            <feOffset dx="0" dy="5" in="SourceAlpha" result="shadowOffsetOuter1"></feOffset>
            <feGaussianBlur stdDeviation="3.5" in="shadowOffsetOuter1" result="shadowBlurOuter1"></feGaussianBlur>
            <feColorMatrix values="0 0 0 0 0.474509804   0 0 0 0 0.521568627   0 0 0 0 0.592156863  0 0 0 0.5 0" type="matrix" in="shadowBlurOuter1"></feColorMatrix>
        </filter>
    </defs>
    <g id="DSD-Real-Estate" stroke="none" stroke-width="1" fill="none" fill-rule="evenodd">
        <g id="icn_cart">
            <use fill="black" fill-opacity="1" filter="url(#filter-3)" xlink:href="#path-2"></use>
            <use fill="url(#linearGradient-1)" fill-rule="evenodd" xlink:href="#path-2"></use>
        </g>
    </g>
</svg>